<svg width="64" height="64" viewBox="0 0 64 64" fill="none" xmlns="http://www.w3.org/2000/svg">
<g clip-path="url(#clip0_601_690)">
<path d="M32 1C15.8073 1 1 14.4462 1 31.0312C1 31.2882 1.10206 31.5346 1.28374 31.7163C1.46542 31.8979 1.71182 32 1.96875 32C2.22568 32 2.47208 31.8979 2.65376 31.7163C2.83544 31.5346 2.9375 31.2882 2.9375 31.0312C2.9375 16.0641 16.5 2.9375 32 2.9375C36.7839 2.93732 41.4939 4.11809 45.712 6.37502C49.9301 8.63195 53.5258 11.8952 56.1801 15.8753C58.8343 19.8554 60.465 24.4291 60.9275 29.1906C61.3899 33.9521 60.6698 38.7542 58.831 43.1706C56.9923 47.587 54.0917 51.4813 50.3867 54.5077C46.6818 57.5341 42.287 59.5992 37.5925 60.5196C32.8979 61.4399 28.0488 61.1872 23.4753 59.7838C18.9019 58.3804 14.7456 55.8697 11.3753 52.4745C11.1942 52.2921 10.948 52.1891 10.6909 52.1882C10.4339 52.1873 10.187 52.2886 10.0045 52.4697C9.82211 52.6508 9.71912 52.897 9.71821 53.1541C9.7173 53.4111 9.81855 53.658 9.99969 53.8405C13.5947 57.4617 18.0281 60.1396 22.9063 61.6364C27.7846 63.1331 32.9569 63.4026 37.9643 62.4207C42.9717 61.4389 47.6593 59.2362 51.6111 56.0081C55.5629 52.7799 58.6568 48.6262 60.6181 43.9154C62.5794 39.2047 63.3476 34.0827 62.8544 29.0038C62.3612 23.925 60.622 19.0464 57.7909 14.801C54.9599 10.5557 51.1247 7.07478 46.6256 4.66727C42.1265 2.25976 37.1027 1.00007 32 1Z" fill="#009B97"/>
<path d="M32.0005 54.7656C28.4505 54.7745 24.9487 53.9447 21.7802 52.3437C21.552 52.2374 21.2914 52.224 21.0535 52.3065C20.8156 52.3889 20.6192 52.5608 20.5058 52.7856C20.3925 53.0104 20.3711 53.2705 20.4462 53.5108C20.5214 53.7511 20.6871 53.9528 20.9083 54.073C24.3464 55.8126 28.1474 56.7139 32.0005 56.7031C36.8415 56.6989 41.5745 55.2724 45.6116 52.6009C49.6486 49.9294 52.8118 46.1306 54.708 41.6765C56.6043 37.2223 57.15 32.3092 56.2775 27.5476C55.405 22.7859 53.1526 18.3855 49.8003 14.8931C46.4479 11.4008 42.1433 8.97036 37.4213 7.90384C32.6993 6.83733 27.768 7.18172 23.2401 8.89425C18.7121 10.6068 14.7872 13.6119 11.9528 17.5364C9.11841 21.4608 7.49957 26.1315 7.29739 30.9683C7.28904 31.2252 7.38309 31.4749 7.55886 31.6625C7.73464 31.8501 7.97772 31.9602 8.23465 31.9685C8.49158 31.9769 8.7413 31.8828 8.92888 31.707C9.11646 31.5313 9.22654 31.2882 9.23489 31.0312C9.4247 26.5748 10.9195 22.2723 13.5336 18.6581C16.1476 15.0439 19.7659 12.2773 23.9388 10.7018C28.1118 9.12628 32.6557 8.81137 37.0061 9.79615C41.3565 10.7809 45.3218 13.022 48.4094 16.2411C51.4971 19.4601 53.5711 23.5153 54.3738 27.9029C55.1766 32.2906 54.6727 36.8174 52.9248 40.9211C51.1768 45.0249 48.2619 48.5247 44.542 50.986C40.822 53.4473 36.461 54.7616 32.0005 54.7656Z" fill="#009B97"/>
<path d="M44.1094 46.5314C44.1094 45.5036 43.7011 44.518 42.9744 43.7913C42.2477 43.0646 41.2621 42.6564 40.2344 42.6564H39.9244C40.5678 41.9941 41.0577 41.1985 41.3593 40.3258C41.661 39.4531 41.767 38.5248 41.67 37.6066C41.5729 36.6884 41.2751 35.8027 40.7976 35.0124C40.3202 34.2221 39.6748 33.5465 38.9071 33.0334C38.1395 32.5203 37.2684 32.1823 36.3555 32.0434C35.4427 31.9044 34.5105 31.9679 33.625 32.2294C32.7394 32.4908 31.9222 32.9438 31.2312 33.5563C30.5403 34.1687 29.9924 34.9256 29.6266 35.7734C29.1067 35.194 28.4704 34.731 27.7592 34.4147C27.048 34.0983 26.2781 33.9357 25.4997 33.9376H1.96875C1.71182 33.9376 1.46542 34.0397 1.28374 34.2213C1.10206 34.403 1 34.6494 1 34.9064C1 35.1633 1.10206 35.4097 1.28374 35.5914C1.46542 35.773 1.71182 35.8751 1.96875 35.8751H14.6788L16.0786 39.6048C16.1476 39.7894 16.2713 39.9486 16.4331 40.0612C16.5949 40.1737 16.7873 40.2341 16.9844 40.2345H17.0619L22.9131 39.7792C23.1701 39.7593 23.4085 39.6381 23.5761 39.4423C23.7437 39.2466 23.8267 38.9923 23.8068 38.7353C23.7869 38.4784 23.6657 38.2399 23.47 38.0723C23.2742 37.9047 23.0199 37.8218 22.763 37.8417L17.6334 38.2437L16.747 35.8751H25.4997C26.3989 35.8751 27.2614 36.2323 27.8972 36.8682C28.5331 37.5041 28.8903 38.3665 28.8903 39.2657C28.8903 40.165 28.5331 41.0274 27.8972 41.6633C27.2614 42.2991 26.3989 42.6564 25.4997 42.6564H13.8166L12.068 38.4132C12.0196 38.2956 11.9486 38.1886 11.8589 38.0983C11.7692 38.0081 11.6626 37.9364 11.5452 37.8874C11.4278 37.8384 11.3019 37.813 11.1747 37.8126C11.0475 37.8122 10.9214 37.8369 10.8038 37.8853C10.6861 37.9336 10.5791 38.0047 10.4889 38.0944C10.3986 38.184 10.327 38.2906 10.2779 38.408C10.2289 38.5254 10.2035 38.6513 10.2031 38.7785C10.2027 38.9058 10.2274 39.0318 10.2758 39.1495L11.7289 42.6564H1.96875C1.71182 42.6564 1.46542 42.7584 1.28374 42.9401C1.10206 43.1218 1 43.3682 1 43.6251C1 43.882 1.10206 44.1284 1.28374 44.3101C1.46542 44.4918 1.71182 44.5939 1.96875 44.5939H40.2344C40.7482 44.5939 41.241 44.798 41.6044 45.1613C41.9677 45.5247 42.1719 46.0175 42.1719 46.5314C42.1719 47.0452 41.9677 47.538 41.6044 47.9014C41.241 48.2647 40.7482 48.4689 40.2344 48.4689H1.96875C1.71182 48.4689 1.46542 48.5709 1.28374 48.7526C1.10206 48.9343 1 49.1807 1 49.4376C1 49.6945 1.10206 49.9409 1.28374 50.1226C1.46542 50.3043 1.71182 50.4064 1.96875 50.4064H40.2344C41.2621 50.4064 42.2477 49.9981 42.9744 49.2714C43.7011 48.5447 44.1094 47.5591 44.1094 46.5314ZM29.7186 42.6564C29.9141 42.4232 30.0891 42.1736 30.2417 41.9104C30.4281 42.1739 30.6337 42.4232 30.8569 42.6564H29.7186ZM35.3906 42.6564C34.5284 42.6564 33.6856 42.4007 32.9687 41.9217C32.2518 41.4427 31.693 40.7618 31.3631 39.9652C31.0331 39.1687 30.9468 38.2921 31.115 37.4465C31.2832 36.6009 31.6984 35.8241 32.3081 35.2144C32.9178 34.6048 33.6945 34.1896 34.5402 34.0214C35.3858 33.8532 36.2623 33.9395 37.0589 34.2694C37.8555 34.5994 38.5363 35.1581 39.0153 35.875C39.4943 36.5919 39.75 37.4348 39.75 38.297C39.75 38.8695 39.6372 39.4363 39.4182 39.9652C39.1991 40.4941 38.878 40.9747 38.4732 41.3795C38.0684 41.7843 37.5878 42.1054 37.0589 42.3245C36.53 42.5436 35.9631 42.6564 35.3906 42.6564Z" fill="#009B97"/>
</g>
<defs>
<clipPath id="clip0_601_690">
<rect width="62" height="62" fill="white" transform="translate(1 1)"/>
</clipPath>
</defs>
</svg>
