<svg width="64" height="64" viewBox="0 0 64 64" fill="none" xmlns="http://www.w3.org/2000/svg">
<path fill-rule="evenodd" clip-rule="evenodd" d="M18.1689 10.9328C19.9573 8.55638 22.5603 6.65796 25.7059 6.65796C28.6271 6.65796 30.6645 7.88397 32.214 9.58998L30.7879 10.9623C29.5436 9.59225 27.9995 8.66738 25.7059 8.66738C23.3714 8.66738 21.2798 10.0805 19.7124 12.1633C17.3296 15.3298 16.0304 19.0181 16.0304 23.7329C16.0304 26.2633 16.9942 28.6929 18.7149 30.5002C20.7932 32.6831 21.9573 35.6176 21.9573 38.6739V48.4229C21.9573 52.1022 24.8551 55.0848 28.4298 55.0848C30.4329 55.0848 32.223 54.1494 33.4118 52.6761L34.9136 53.96C33.3698 55.8732 31.0379 57.0943 28.4298 57.0943C23.7769 57.0943 20.005 53.2119 20.005 48.4229V38.6739C20.0051 36.1435 19.0413 33.7139 17.3205 31.9066L17.3205 31.9066C15.2423 29.7238 14.0781 26.7892 14.0781 23.7329C14.0781 18.5879 15.5121 14.4634 18.1689 10.9329L18.1689 10.9328Z" fill="#009B97"/>
<path fill-rule="evenodd" clip-rule="evenodd" d="M19.0515 19.571C17.6413 16.8005 17.3603 12.6983 19.8755 10.0205L20.5647 10.7289C18.4505 12.9799 18.6115 16.5559 19.9044 19.0959C20.9739 21.197 22.6165 22.8704 24.3127 24.5984C24.6904 24.9832 25.0708 25.3707 25.448 25.7662C27.4875 27.9044 29.5253 30.4835 29.9807 33.6307L29.503 33.7063L29.9807 33.6307C30.3499 36.1824 29.5702 38.8835 27.9125 40.795L27.5546 40.4555L27.9125 40.795C26.2365 42.7275 23.5295 43.6447 21.1153 43.6447V42.6339C23.3386 42.6339 25.7525 41.7812 27.1968 40.1159C28.6593 38.4294 29.351 36.0333 29.0253 33.782C28.6199 30.9804 26.7871 28.6011 24.764 26.4802C24.4099 26.109 24.0453 25.738 23.6772 25.3635C21.9752 23.632 20.1989 21.825 19.0515 19.571ZM44.0231 11.0509L44.0249 11.0535L44.0287 11.0588L43.2534 11.662L43.2478 11.6542L43.2469 11.6529L43.246 11.6516L43.2358 11.6372L44.0148 11.039L44.0231 11.0509Z" fill="#009B97"/>
<path fill-rule="evenodd" clip-rule="evenodd" d="M29.8182 10.9328C31.5758 8.55637 34.134 6.65796 37.2254 6.65796C40.6255 6.65796 42.783 8.37394 44.3745 10.5188C44.3748 10.519 44.3751 10.5191 44.3754 10.5193C44.3849 10.5314 44.3974 10.5477 44.4004 10.5519L44.4053 10.5585L44.4085 10.563L44.4098 10.5647L44.4108 10.5662L44.412 10.5678L44.4132 10.5696L44.4133 10.5697L44.4134 10.5699L44.4136 10.5701L44.4144 10.5713L44.4158 10.5732L44.4227 10.583L44.423 10.5834L44.4228 10.5835C44.4227 10.5834 44.4226 10.5832 44.4225 10.5831L44.4222 10.5833C44.4223 10.5835 44.4224 10.5836 44.4225 10.5838L43.8952 10.9918L44.4228 10.5842C44.4246 10.5866 44.4264 10.589 44.4281 10.5915C44.4264 10.5888 44.4251 10.5868 44.4243 10.5857C44.4239 10.5851 44.4235 10.5845 44.4231 10.5839L44.4233 10.5838L44.4333 10.5979L44.433 10.5981C44.4348 10.6006 44.4367 10.6031 44.4385 10.6056L44.4433 10.6122L44.448 10.6188C48.6211 16.5256 50.1245 24.0365 48.7329 31.2204C48.3663 33.1128 48.1816 35.0388 48.1816 36.9697V48.4229C48.1816 53.212 44.4748 57.0943 39.9021 57.0943C35.3295 57.0943 31.6226 53.212 31.6226 48.4229V38.6739C31.6226 36.1435 30.6755 33.7139 28.9844 31.9066C26.9418 29.7237 25.7978 26.7892 25.7979 23.7329C25.7979 18.5879 27.2071 14.4634 29.8182 10.9328ZM44.4327 10.5984L42.8897 11.7903C42.8948 11.797 42.9012 11.8052 42.9066 11.8121C42.9069 11.8123 42.9072 11.8125 42.9075 11.8126L43.6768 11.2164L42.9227 11.8212C43.5213 12.1458 44.5785 11.3664 44.4468 10.6206C44.4467 10.6204 44.4466 10.6202 44.4465 10.62C44.4437 10.6156 44.4407 10.6108 44.4377 10.6062C44.436 10.6035 44.4343 10.6009 44.4327 10.5984ZM42.9104 11.8207C41.5523 9.96542 39.8924 8.66738 37.2254 8.66738C34.9311 8.66738 32.8755 10.0805 31.3351 12.1633C28.9932 15.3298 27.7165 19.0181 27.7165 23.7329C27.7164 26.2633 28.6636 28.6929 30.3547 30.5002C32.3972 32.6831 33.5413 35.6176 33.5412 38.6739V48.4229C33.5412 52.1022 36.3891 55.0848 39.9021 55.0848C43.4151 55.0848 46.263 52.1022 46.263 48.4229V36.9697C46.263 34.9046 46.4605 32.8447 46.8526 30.8209C48.139 24.1799 46.7468 17.2549 42.9104 11.8207ZM44.4231 10.5839C44.423 10.5838 44.4229 10.5837 44.4228 10.5835L44.4225 10.5838C44.4226 10.5839 44.4227 10.584 44.4228 10.5842L44.4231 10.5839Z" fill="#009B97"/>
<path fill-rule="evenodd" clip-rule="evenodd" d="M30.1461 19.571C28.7026 16.8005 28.415 12.6983 30.9893 10.0205L31.6948 10.7289C29.5308 12.9799 29.6956 16.5559 31.0191 19.0959L31.0191 19.0959C32.1137 21.197 33.795 22.8704 35.5311 24.5984C35.9177 24.9832 36.307 25.3707 36.6931 25.7662C38.7806 27.9044 40.8664 30.4835 41.3325 33.6307C41.7105 36.1825 40.9124 38.8835 39.2156 40.795C37.5002 42.7275 34.7294 43.6447 32.2584 43.6447V42.6339C34.534 42.6339 37.0048 41.7812 38.483 40.1159L38.8493 40.4555L38.483 40.1159C39.9801 38.4294 40.6881 36.0333 40.3546 33.782L40.3546 33.782C39.9396 30.9804 38.0637 28.6011 35.993 26.4802C35.6306 26.109 35.2574 25.738 34.8806 25.3635C33.1385 23.632 31.3204 21.825 30.1461 19.571Z" fill="#009B97"/>
</svg>
