<svg width="64" height="65" viewBox="0 0 64 65" fill="none" xmlns="http://www.w3.org/2000/svg">
<path fill-rule="evenodd" clip-rule="evenodd" d="M56.9995 15.8696H50.9125L50.9125 21.9565H56.9995V15.8696ZM50.9125 15C50.4323 15 50.043 15.3893 50.043 15.8696V21.9565C50.043 22.4368 50.4323 22.8261 50.9125 22.8261H56.9995C57.4797 22.8261 57.8691 22.4368 57.8691 21.9565V15.8696C57.8691 15.3893 57.4797 15 56.9995 15H50.9125Z" fill="#009B97"/>
<path fill-rule="evenodd" clip-rule="evenodd" d="M32.216 49.7827C32.4562 49.7827 32.6508 49.5881 32.6508 49.3479V31.3284C32.6531 31.3198 32.6583 31.3005 32.6696 31.2679C32.6919 31.2035 32.7275 31.1152 32.7775 31.0023C32.8771 30.7776 33.0228 30.4806 33.2035 30.1303C33.564 29.4311 34.0522 28.5412 34.5602 27.6355C35.3238 26.2741 36.1244 24.8903 36.5952 24.0764C36.7513 23.8067 36.8711 23.5996 36.9414 23.4767C36.9808 23.4077 37.0202 23.3379 37.0599 23.2675C37.4703 22.5405 37.9203 21.7434 38.8166 21.084C39.7921 20.3664 41.3461 19.7827 44.0467 19.7827H52.6508C52.8909 19.7827 53.0856 19.5881 53.0856 19.3479C53.0856 19.1078 52.8909 18.9132 52.6508 18.9132H44.0467C41.221 18.9132 39.4683 19.5251 38.3014 20.3836C37.2477 21.1587 36.7121 22.1113 36.3051 22.8351C36.2644 22.9076 36.2249 22.9778 36.1864 23.0453C36.1186 23.1638 36.0013 23.3666 35.8477 23.632C35.378 24.4439 34.569 25.8423 33.8018 27.2101C33.2924 28.1183 32.7982 29.0188 32.4306 29.7318C32.2471 30.0876 32.0924 30.4021 31.9825 30.65C31.9278 30.7734 31.8814 30.8866 31.8479 30.9836C31.8202 31.0635 31.7812 31.1861 31.7812 31.3045V49.3479C31.7812 49.5881 31.9759 49.7827 32.216 49.7827Z" fill="#009B97"/>
<path fill-rule="evenodd" clip-rule="evenodd" d="M53.7385 19.7826C54.0987 19.7826 54.3907 19.4906 54.3907 19.1304C54.3907 18.7702 54.0987 18.4782 53.7385 18.4782C53.3784 18.4782 53.0864 18.7702 53.0864 19.1304C53.0864 19.4906 53.3784 19.7826 53.7385 19.7826ZM53.7385 20.6521C54.579 20.6521 55.2603 19.9708 55.2603 19.1304C55.2603 18.2899 54.579 17.6086 53.7385 17.6086C52.8981 17.6086 52.2168 18.2899 52.2168 19.1304C52.2168 19.9708 52.8981 20.6521 53.7385 20.6521Z" fill="#009B97"/>
<path fill-rule="evenodd" clip-rule="evenodd" d="M28.4324 50.9777V57.8448C28.4324 58.1417 28.3552 58.413 28.2442 58.6421C28.0044 59.1374 27.8696 59.6935 27.8696 60.2837C27.8696 62.3673 29.5587 64.0563 31.6423 64.0563C33.7259 64.0563 35.4149 62.3673 35.4149 60.2837C35.4149 59.5984 35.2331 58.9583 34.9155 58.4062C34.7685 58.1505 34.6648 57.8387 34.6648 57.4941V50.9777L28.4324 50.9777ZM27.5628 50.9777C27.5628 50.4975 27.9521 50.1082 28.4324 50.1082H34.6648C35.145 50.1082 35.5344 50.4975 35.5344 50.9777V57.4941C35.5344 57.6627 35.5853 57.8265 35.6693 57.9727C36.0607 58.6532 36.2845 59.4423 36.2845 60.2837C36.2845 62.8475 34.2061 64.9259 31.6423 64.9259C29.0784 64.9259 27 62.8475 27 60.2837C27 59.5595 27.1658 58.874 27.4616 58.2632C27.5249 58.1324 27.5628 57.9901 27.5628 57.8448V50.9777Z" fill="#009B97"/>
<path fill-rule="evenodd" clip-rule="evenodd" d="M31.5652 64.1305C33.6063 64.1305 35.2609 62.4759 35.2609 60.4348C35.2609 58.3938 33.6063 56.7392 31.5652 56.7392C29.5242 56.7392 27.8696 58.3938 27.8696 60.4348C27.8696 62.4759 29.5242 64.1305 31.5652 64.1305ZM31.5652 65.0001C34.0865 65.0001 36.1304 62.9561 36.1304 60.4348C36.1304 57.9135 34.0865 55.8696 31.5652 55.8696C29.0439 55.8696 27 57.9135 27 60.4348C27 62.9561 29.0439 65.0001 31.5652 65.0001Z" fill="#009B97"/>
<path fill-rule="evenodd" clip-rule="evenodd" d="M31.3485 61.087C31.8288 61.087 32.2181 60.6976 32.2181 60.2174C32.2181 59.7372 31.8288 59.3478 31.3485 59.3478C30.8683 59.3478 30.4789 59.7372 30.4789 60.2174C30.4789 60.6976 30.8683 61.087 31.3485 61.087ZM31.3485 61.9565C32.309 61.9565 33.0876 61.1779 33.0876 60.2174C33.0876 59.2569 32.309 58.4783 31.3485 58.4783C30.388 58.4783 29.6094 59.2569 29.6094 60.2174C29.6094 61.1779 30.388 61.9565 31.3485 61.9565Z" fill="#009B97"/>
<path fill-rule="evenodd" clip-rule="evenodd" d="M30.0434 52.8261V54.1305H33.0869V52.8261H30.0434ZM29.6086 51.9565C29.3685 51.9565 29.1738 52.1512 29.1738 52.3913V54.5652C29.1738 54.8054 29.3685 55 29.6086 55H33.5217C33.7618 55 33.9564 54.8054 33.9564 54.5652V52.3913C33.9564 52.1512 33.7618 51.9565 33.5217 51.9565H29.6086Z" fill="#009B97"/>
<path fill-rule="evenodd" clip-rule="evenodd" d="M21.1307 15.2174C19.1969 15.2174 16.7562 16.1773 15.7701 16.6703C15.448 16.8314 15.0562 16.7008 14.8952 16.3787C14.7341 16.0565 14.8647 15.6648 15.1868 15.5037C16.2297 14.9822 18.8905 13.9131 21.1307 13.9131C23.2907 13.9131 25.4659 14.3601 26.3023 14.5882C26.6498 14.683 26.8546 15.0415 26.7599 15.389C26.6651 15.7365 26.3066 15.9414 25.9591 15.8466C25.2012 15.6399 23.1446 15.2174 21.1307 15.2174ZM29.1914 16.4556C29.4681 16.225 29.8794 16.2624 30.1099 16.5391C30.2517 16.7092 30.5396 16.99 30.9022 17.2234C31.2696 17.46 31.6527 17.6087 32.0002 17.6087C32.3478 17.6087 32.7309 17.46 33.0983 17.2234C33.4609 16.99 33.7487 16.7092 33.8905 16.5391C34.1211 16.2624 34.5323 16.225 34.809 16.4556C35.0857 16.6861 35.1231 17.0974 34.8925 17.3741C34.672 17.6387 34.2859 18.0101 33.8043 18.3201C33.3276 18.6271 32.6961 18.9131 32.0002 18.9131C31.3043 18.9131 30.6729 18.6271 30.1961 18.3201C29.7145 18.0101 29.3285 17.6387 29.1079 17.3741C28.8773 17.0974 28.9147 16.6861 29.1914 16.4556Z" fill="#009B97"/>
<path fill-rule="evenodd" clip-rule="evenodd" d="M42.8693 15.2174C44.8031 15.2174 47.2438 16.1773 48.2299 16.6703C48.552 16.8314 48.9438 16.7008 49.1048 16.3787C49.2659 16.0565 49.1353 15.6648 48.8132 15.5037C47.7703 14.9822 45.1095 13.9131 42.8693 13.9131C40.7093 13.9131 38.5341 14.3601 37.6977 14.5882C37.3502 14.683 37.1454 15.0415 37.2401 15.389C37.3349 15.7365 37.6934 15.9414 38.0409 15.8466C38.7988 15.6399 40.8554 15.2174 42.8693 15.2174ZM34.8086 16.4556C34.5319 16.225 34.1206 16.2624 33.8901 16.5391C33.7483 16.7092 33.4604 16.99 33.0978 17.2234C32.7304 17.46 32.3473 17.6087 31.9998 17.6087C31.6522 17.6087 31.2691 17.46 30.9017 17.2234C30.5391 16.99 30.2513 16.7092 30.1095 16.5391C29.8789 16.2624 29.4677 16.225 29.191 16.4556C28.9143 16.6861 28.8769 17.0974 29.1075 17.3741C29.328 17.6387 29.7141 18.0101 30.1957 18.3201C30.6724 18.6271 31.3039 18.9131 31.9998 18.9131C32.6957 18.9131 33.3271 18.6271 33.8039 18.3201C34.2855 18.0101 34.6715 17.6387 34.8921 17.3741C35.1227 17.0974 35.0853 16.6861 34.8086 16.4556Z" fill="#009B97"/>
<path fill-rule="evenodd" clip-rule="evenodd" d="M24.2239 0.00195267C24.5831 0.0295777 24.8518 0.3431 24.8242 0.702225L24.3616 6.71578L24.04 6.883C22.24 7.81901 18.2852 9.84823 17.0395 10.3821L16.9165 10.4348H13.3043C10.7426 10.4348 8.51075 11.8029 5.93942 14.3742C5.01752 15.2961 4.36628 16.793 3.93933 18.3714C3.51878 19.9262 3.34002 21.4681 3.30435 22.4036V39.1305C3.30435 39.4907 3.01236 39.7826 2.65217 39.7826C2.29199 39.7826 2 39.4907 2 39.1305V22.3793L2.00045 22.3672C2.03831 21.345 2.22938 19.6977 2.68023 18.0308C3.12648 16.381 3.85204 14.617 5.0171 13.4519C7.66316 10.8059 10.2139 9.13047 13.3043 9.13047H16.6465C17.8842 8.58149 21.2554 6.85754 23.1167 5.8927L23.5237 0.602186C23.5513 0.243061 23.8648 -0.0256723 24.2239 0.00195267Z" fill="#009B97"/>
<path fill-rule="evenodd" clip-rule="evenodd" d="M39.7761 0.00195267C39.4169 0.0295777 39.1482 0.3431 39.1758 0.702225L39.6384 6.71578L39.96 6.883C41.76 7.81901 45.7148 9.84823 46.9605 10.3821L47.0835 10.4348H50.6957C53.2574 10.4348 55.4892 11.8029 58.0606 14.3742C58.9825 15.2961 59.6337 16.793 60.0607 18.3714C60.4812 19.9262 60.66 21.4681 60.6957 22.4036V39.1305C60.6957 39.4907 60.9876 39.7826 61.3478 39.7826C61.708 39.7826 62 39.4907 62 39.1305V22.3793L61.9996 22.3672C61.9617 21.345 61.7706 19.6977 61.3198 18.0308C60.8735 16.381 60.148 14.617 58.9829 13.4519C56.3368 10.8059 53.7861 9.13047 50.6957 9.13047H47.3535C46.1158 8.58149 42.7446 6.85754 40.8833 5.8927L40.4763 0.602186C40.4487 0.243061 40.1352 -0.0256723 39.7761 0.00195267Z" fill="#009B97"/>
<path fill-rule="evenodd" clip-rule="evenodd" d="M13.7786 39.1833C14.1096 39.3252 14.263 39.7086 14.1211 40.0396C13.5082 41.4697 12.8695 43.9893 12.8695 47.3914C12.8695 48.8822 12.337 51.2814 11.7054 53.6059C11.0665 55.9569 10.3008 58.3197 9.7894 59.7808C9.67041 60.1207 9.29835 60.2999 8.95839 60.1809C8.61843 60.0619 8.43929 59.6898 8.55828 59.3499C9.0614 57.9124 9.81739 55.5796 10.4467 53.2639C11.0831 50.9217 11.5651 48.6832 11.5651 47.3914C11.5651 43.837 12.2308 41.1392 12.9222 39.5258C13.0641 39.1947 13.4475 39.0414 13.7786 39.1833Z" fill="#009B97"/>
<path fill-rule="evenodd" clip-rule="evenodd" d="M50.2214 39.1833C49.8904 39.3252 49.737 39.7086 49.8789 40.0396C50.4918 41.4697 51.1305 43.9893 51.1305 47.3914C51.1305 48.8822 51.663 51.2814 52.2946 53.6059C52.9335 55.9569 53.6992 58.3197 54.2106 59.7808C54.3296 60.1207 54.7016 60.2999 55.0416 60.1809C55.3816 60.0619 55.5607 59.6898 55.4417 59.3499C54.9386 57.9124 54.1826 55.5796 53.5533 53.2639C52.9169 50.9217 52.4349 48.6832 52.4349 47.3914C52.4349 43.837 51.7692 41.1392 51.0778 39.5258C50.9359 39.1947 50.5525 39.0414 50.2214 39.1833Z" fill="#009B97"/>
<path fill-rule="evenodd" clip-rule="evenodd" d="M13.9732 31.0871C14.3333 31.0964 14.6177 31.3957 14.6085 31.7558C14.5724 33.1611 14.5509 35.345 14.603 37.3252C14.6291 38.3161 14.6735 39.2473 14.7425 40.0009C14.8148 40.7899 14.9073 41.2875 14.9907 41.4822C15.3575 42.3379 15.6367 43.8358 15.8266 45.3824C16.0196 46.9539 16.1304 48.6654 16.1304 50C16.1304 51.3613 15.9598 52.4392 15.7917 53.28C15.7499 53.489 15.7082 53.6833 15.67 53.8609L15.6621 53.8977C15.6266 54.0622 15.5949 54.2097 15.5675 54.3466C15.5071 54.6487 15.4783 54.8522 15.4783 55V60C15.4783 60.3601 15.1863 60.6521 14.8261 60.6521C14.4659 60.6521 14.1739 60.3601 14.1739 60V55C14.1739 54.713 14.2266 54.4002 14.2885 54.0908C14.3178 53.944 14.3516 53.7872 14.3864 53.6255L14.3949 53.5864C14.4331 53.409 14.4729 53.2229 14.5127 53.0242C14.6706 52.2347 14.8261 51.2473 14.8261 50C14.8261 48.7258 14.7195 47.0678 14.532 45.5414C14.3415 43.9902 14.0773 42.6621 13.7919 41.996C13.6144 41.582 13.5131 40.8785 13.4436 40.1199C13.3709 39.326 13.3256 38.3632 13.2991 37.3595C13.2462 35.3506 13.2681 33.1431 13.3046 31.7224C13.3138 31.3623 13.6132 31.0779 13.9732 31.0871Z" fill="#009B97"/>
<path fill-rule="evenodd" clip-rule="evenodd" d="M50.0268 31.0871C49.6667 31.0964 49.3823 31.3957 49.3915 31.7558C49.4276 33.1611 49.4491 35.345 49.397 37.3252C49.3709 38.3161 49.3265 39.2473 49.2575 40.0009C49.1852 40.7899 49.0927 41.2875 49.0093 41.4822C48.6425 42.3379 48.3633 43.8358 48.1734 45.3824C47.9804 46.9539 47.8696 48.6654 47.8696 50C47.8696 51.3613 48.0402 52.4392 48.2083 53.28C48.2501 53.489 48.2918 53.6833 48.33 53.8609L48.3379 53.8977C48.3734 54.0622 48.4051 54.2097 48.4325 54.3466C48.4929 54.6487 48.5217 54.8522 48.5217 55V60C48.5217 60.3601 48.8137 60.6521 49.1739 60.6521C49.5341 60.6521 49.8261 60.3601 49.8261 60V55C49.8261 54.713 49.7734 54.4002 49.7115 54.0908C49.6822 53.944 49.6484 53.7872 49.6136 53.6255L49.6051 53.5864C49.5669 53.409 49.5271 53.2229 49.4873 53.0242C49.3294 52.2347 49.1739 51.2473 49.1739 50C49.1739 48.7258 49.2805 47.0678 49.468 45.5414C49.6585 43.9902 49.9227 42.6621 50.2081 41.996C50.3856 41.582 50.4869 40.8785 50.5564 40.1199C50.6291 39.326 50.6744 38.3632 50.7009 37.3595C50.7538 35.3506 50.7319 33.1431 50.6954 31.7224C50.6862 31.3623 50.3868 31.0779 50.0268 31.0871Z" fill="#009B97"/>
<path fill-rule="evenodd" clip-rule="evenodd" d="M11.9604 23.697C12.3199 23.6752 12.629 23.949 12.6508 24.3085C12.72 25.4506 13.0138 27.288 13.6654 29.039C14.3239 30.8086 15.3028 32.3693 16.6644 33.1257C18.4715 34.1297 21.5384 34.5658 24.4576 34.6198C25.8992 34.6465 27.27 34.5796 28.3804 34.454C29.524 34.3247 30.3011 34.1421 30.6212 33.9821C30.9434 33.821 31.3351 33.9516 31.4962 34.2737C31.6573 34.5959 31.5267 34.9876 31.2046 35.1487C30.6551 35.4234 29.6659 35.6213 28.5269 35.7501C27.3547 35.8827 25.9266 35.9516 24.4334 35.924C21.4831 35.8693 18.1369 35.4359 16.031 34.2659C14.2621 33.2832 13.1395 31.3657 12.443 29.4939C11.7395 27.6036 11.4246 25.6367 11.3489 24.3874C11.3271 24.0279 11.6009 23.7188 11.9604 23.697Z" fill="#009B97"/>
<path fill-rule="evenodd" clip-rule="evenodd" d="M52.0396 23.697C51.6801 23.6752 51.371 23.949 51.3492 24.3085C51.28 25.4506 50.9862 27.288 50.3346 29.039C49.6761 30.8086 48.6972 32.3693 47.3356 33.1257C45.5285 34.1297 42.4616 34.5658 39.5424 34.6198C38.1008 34.6465 36.73 34.5796 35.6196 34.454C34.476 34.3247 33.6989 34.1421 33.3788 33.9821C33.0566 33.821 32.6649 33.9516 32.5038 34.2737C32.3427 34.5959 32.4733 34.9876 32.7954 35.1487C33.3449 35.4234 34.3341 35.6213 35.4731 35.7501C36.6453 35.8827 38.0734 35.9516 39.5666 35.924C42.5169 35.8693 45.8631 35.4359 47.969 34.2659C49.7379 33.2832 50.8605 31.3657 51.557 29.4939C52.2605 27.6036 52.5754 25.6367 52.6511 24.3874C52.6729 24.0279 52.3991 23.7188 52.0396 23.697Z" fill="#009B97"/>
</svg>
