<svg width="64" height="64" viewBox="0 0 64 64" fill="none" xmlns="http://www.w3.org/2000/svg">
<mask id="mask0_601_693" style="mask-type:luminance" maskUnits="userSpaceOnUse" x="4" y="4" width="55" height="55">
<path d="M4 4H59V59H4V4Z" fill="white"/>
</mask>
<g mask="url(#mask0_601_693)">
<path d="M5.03711 24.256V57.1201C5.03711 57.7134 5.51814 58.1943 6.11133 58.1943H56.8917C57.4849 58.1943 57.9659 57.7134 57.9659 57.1201V5.87988C57.9659 5.28659 57.4849 4.80566 56.8917 4.80566H6.11133C5.51814 4.80566 5.03711 5.28659 5.03711 5.87988V20.4962" stroke="#009B97" stroke-width="1.5" stroke-miterlimit="10" stroke-linecap="round" stroke-linejoin="round"/>
<path d="M22.9626 43.0113C22.9519 43.0274 22.9401 43.0425 22.9284 43.0586M22.9284 43.0586C21.9142 44.4035 20.0085 44.7666 18.1963 44.1199C17.946 44.0308 17.6667 44.1103 17.511 44.3251L16.1791 46.1706C16.107 46.2707 16.0683 46.391 16.0683 46.5144V58.1943H12.0368V50.2816C12.0368 49.9647 11.9756 49.6511 11.8574 49.3578L10.6704 46.4155C10.3396 45.5953 10.3212 44.6821 10.6188 43.8492L10.9454 42.9361C11.1667 42.3163 11.8456 41.9897 12.4675 42.2035L12.9101 42.3561C13.4107 42.5279 13.965 42.3518 14.2754 41.9221L14.8534 41.1218C14.211 39.7489 14.24 38.2396 15.0768 37.1311C15.5462 36.5091 16.2021 36.0795 16.9599 35.8979C17.8949 35.8597 20.1421 36.4683 21.3637 38.2005C22.5853 39.9327 22.9284 41.1218 22.9284 43.0586Z" stroke="#009B97" stroke-width="1.5" stroke-miterlimit="10" stroke-linecap="round" stroke-linejoin="round"/>
<path d="M40.0733 43.0586C41.0875 44.4035 42.9932 44.7666 44.8054 44.1199C45.0557 44.0308 45.335 44.1103 45.4907 44.3251L46.8228 46.1706C46.8946 46.2705 46.9334 46.3908 46.9334 46.5144V58.1943H50.9649V50.2816C50.965 49.965 51.0259 49.6514 51.1443 49.3578L52.3313 46.4155C52.6622 45.5948 52.6805 44.6817 52.3829 43.8492L52.0563 42.9361C51.8351 42.3163 51.1562 41.9897 50.5342 42.2035L50.0916 42.3561C49.591 42.5279 49.0367 42.3518 48.7263 41.9221L48.1483 41.1218C48.7907 39.7489 48.7617 38.2396 47.9249 37.1311C47.4555 36.5091 46.7996 36.0795 46.0418 35.8979C45.1671 35.8463 43.0833 36.1541 41.7455 37.7977C41.1881 38.514 40.0733 40.569 40.0733 43.0586ZM40.0733 43.0586C40.0616 43.0425 40.0498 43.0274 40.0391 43.0113" stroke="#009B97" stroke-width="1.5" stroke-miterlimit="10" stroke-linecap="round" stroke-linejoin="round"/>
<path d="M27.7266 4.80557V29.2451" stroke="#009B97" stroke-width="1.5" stroke-miterlimit="10" stroke-linecap="round" stroke-linejoin="round"/>
<path d="M35.2754 29.2451V4.80557" stroke="#009B97" stroke-width="1.5" stroke-miterlimit="10" stroke-linecap="round" stroke-linejoin="round"/>
<path d="M27.7266 22.7501C29.9473 24.3408 33.0524 24.3408 35.2732 22.7501" stroke="#009B97" stroke-width="1.5" stroke-miterlimit="10" stroke-linecap="round" stroke-linejoin="round"/>
<path d="M27.7266 15.5443C29.9473 17.135 33.0524 17.135 35.2732 15.5443" stroke="#009B97" stroke-width="1.5" stroke-miterlimit="10" stroke-linecap="round" stroke-linejoin="round"/>
<path d="M27.7266 8.33847C29.9473 9.92917 33.0524 9.92917 35.2732 8.33847" stroke="#009B97" stroke-width="1.5" stroke-miterlimit="10" stroke-linecap="round" stroke-linejoin="round"/>
<path d="M43.65 22.6513C42.2374 23.2221 41.0581 24.2493 40.2946 25.55C39.1043 27.5775 37.0469 28.9451 34.733 29.3606C32.5955 29.7443 30.4067 29.7443 28.2692 29.3606C25.9553 28.9451 23.8978 27.5775 22.7076 25.55C21.4551 23.4165 19.0848 22.0191 16.4 22.164C12.9034 22.3526 10.0793 25.2005 9.91771 28.6985C9.73541 32.6413 12.8781 35.8951 16.7808 35.8951C20.7002 35.8951 22.97 39.5177 22.97 43.4012C22.97 45.8789 24.9785 47.8875 27.4562 47.8875C28.856 47.8875 30.1061 47.2463 30.9288 46.2415C31.222 45.8835 31.7801 45.8835 32.0734 46.2415C32.896 47.2463 34.1462 47.8875 35.546 47.8875C38.0237 47.8875 40.0322 45.8789 40.0322 43.4012C40.0322 39.5177 42.302 35.8951 46.2214 35.8951C50.124 35.8951 53.2667 32.6413 53.0844 28.6985C52.9344 25.4478 50.4847 22.7585 47.3329 22.2431M39.0006 33.2426C37.7406 36.3262 36.0008 39.8959 31.5011 39.8959C27.0013 39.8959 25.2615 36.3262 24.0016 33.2426C23.74 32.6024 24.4086 31.9766 25.0292 32.2818C29.3438 34.4043 33.6584 34.4043 37.973 32.2818C38.5935 31.9766 39.2621 32.6024 39.0006 33.2426Z" stroke="#009B97" stroke-width="1.5" stroke-miterlimit="10" stroke-linecap="round" stroke-linejoin="round"/>
<path d="M10.0195 8.66064H12.2834" stroke="#009B97" stroke-width="1.5" stroke-miterlimit="10" stroke-linecap="round" stroke-linejoin="round"/>
<path d="M10.0195 12.1064H17.0057" stroke="#009B97" stroke-width="1.5" stroke-miterlimit="10" stroke-linecap="round" stroke-linejoin="round"/>
<path d="M10.0195 15.5525H17.0057" stroke="#009B97" stroke-width="1.5" stroke-miterlimit="10" stroke-linecap="round" stroke-linejoin="round"/>
</g>
</svg>
