<svg width="64" height="64" viewBox="0 0 64 64" fill="none" xmlns="http://www.w3.org/2000/svg">
<path d="M21.3555 14.8289C20.9322 14.8289 20.5089 14.6679 20.1858 14.3458L19.1589 13.3189C19.0046 13.1655 18.8824 12.9831 18.7991 12.7821C18.7159 12.5812 18.6733 12.3657 18.6738 12.1482C18.6738 11.7066 18.8464 11.291 19.1589 10.9785L19.8319 10.3035C20.7605 9.3759 22.2706 9.3759 23.1992 10.3035C24.1278 11.2312 24.1278 12.7422 23.1992 13.6708L22.5262 14.3449C22.3726 14.4987 22.1901 14.6207 21.9892 14.7038C21.7883 14.7869 21.5729 14.8294 21.3555 14.8289ZM20.7152 12.1482L21.3555 12.7885L21.8357 12.3083C21.9144 12.2222 21.9568 12.109 21.9542 11.9924C21.9515 11.8758 21.904 11.7647 21.8216 11.6822C21.7391 11.5997 21.628 11.5522 21.5113 11.5496C21.3947 11.5469 21.2816 11.5893 21.1954 11.668L20.7152 12.1482ZM38.0135 14.8289C37.5902 14.8289 37.1659 14.6679 36.8439 14.3458L36.1698 13.6718C35.7195 13.2224 35.4717 12.6246 35.4717 11.9882C35.4717 11.3517 35.7195 10.7539 36.1698 10.3035C36.6168 9.85791 37.2223 9.60767 37.8535 9.60767C38.4847 9.60767 39.0901 9.85791 39.5371 10.3035L40.2102 10.9776C40.5226 11.29 40.6952 11.7056 40.6952 12.1473C40.6952 12.5899 40.5226 13.0055 40.2092 13.3179L39.1842 14.3449C39.0306 14.4987 38.8481 14.6207 38.6472 14.7038C38.4463 14.7869 38.231 14.8294 38.0135 14.8289ZM37.8535 11.5359C37.7637 11.535 37.6757 11.561 37.6008 11.6105C37.5259 11.6599 37.4675 11.7307 37.4331 11.8136C37.3987 11.8965 37.3899 11.9878 37.4077 12.0758C37.4256 12.1638 37.4693 12.2444 37.5333 12.3073L38.0135 12.7875L38.6538 12.1482L38.1736 11.668C38.0886 11.5833 37.9735 11.5358 37.8535 11.5359ZM36.6462 54.3936C32.3175 54.3936 28.7959 50.872 28.7959 46.5424V40.6853H30.7245V46.5424C30.726 48.1125 31.3504 49.6179 32.4606 50.7283C33.5707 51.8386 35.076 52.4632 36.6462 52.465C38.2164 52.4632 39.7218 51.8387 40.8322 50.7283C41.9425 49.618 42.567 48.1126 42.5688 46.5424V45.2579H44.4974V46.5424C44.4974 50.871 40.9758 54.3936 36.6462 54.3936Z" fill="#009B97"/>
<path d="M43.533 45.9407C42.1395 45.9391 40.8036 45.385 39.8182 44.3998C38.8328 43.4146 38.2784 42.0787 38.2767 40.6853C38.2782 39.2917 38.8325 37.9556 39.8179 36.9702C40.8033 35.9848 42.1394 35.4305 43.533 35.429C44.6892 35.429 45.7875 35.7983 46.7084 36.4955C46.9084 36.6514 47.0389 36.8798 47.0717 37.1313C47.1045 37.3827 47.0369 37.637 46.8836 37.839C46.7303 38.041 46.5036 38.1744 46.2526 38.2105C46.0016 38.2465 45.7465 38.1823 45.5425 38.0316C44.9652 37.5916 44.2589 37.3543 43.533 37.3566C42.6507 37.3576 41.8049 37.7085 41.181 38.3324C40.5572 38.9563 40.2062 39.8021 40.2052 40.6844C40.2052 42.5184 41.6979 44.0111 43.533 44.0111C45.368 44.0111 46.8607 42.5184 46.8607 40.6844C46.8607 40.4286 46.9623 40.1833 47.1432 40.0025C47.324 39.8217 47.5693 39.7201 47.825 39.7201C48.0808 39.7201 48.326 39.8217 48.5069 40.0025C48.6877 40.1833 48.7893 40.4286 48.7893 40.6844C48.7878 42.0779 48.2335 43.414 47.2481 44.3994C46.2626 45.3849 44.9266 45.9391 43.533 45.9407ZM29.7601 37.6401C21.7382 37.6401 15.2109 31.1128 15.2109 23.091C15.2109 19.2647 16.6844 15.6515 19.3593 12.9177L20.7382 14.2658C18.4246 16.6197 17.1317 19.7904 17.1395 23.091C17.1395 30.0502 22.8008 35.7115 29.7601 35.7115C36.7193 35.7115 42.3807 30.0502 42.3807 23.091C42.3853 21.433 42.061 19.7907 41.4265 18.2589C40.7921 16.7272 39.8601 15.3365 38.6845 14.1675L40.048 12.804C41.4032 14.1517 42.4776 15.7549 43.209 17.5207C43.9404 19.2864 44.3144 21.1797 44.3092 23.091C44.3102 31.1128 37.7829 37.6401 29.7601 37.6401Z" fill="#009B97"/>
<path d="M29.7601 41.6496C28.7712 41.6485 27.8231 41.2552 27.1239 40.556C26.4246 39.8567 26.0313 38.9086 26.0303 37.9197V36.4453H27.9588V37.9187C27.9588 38.912 28.7669 39.72 29.7601 39.72C30.7533 39.72 31.5614 38.912 31.5614 37.9187V36.4453H33.49V37.9187C33.489 38.9077 33.0957 39.8559 32.3965 40.5554C31.6972 41.2548 30.7491 41.6483 29.7601 41.6496Z" fill="#009B97"/>
<path d="M43.5327 41.9514C44.232 41.9514 44.7988 41.3845 44.7988 40.6853C44.7988 39.986 44.232 39.4192 43.5327 39.4192C42.8335 39.4192 42.2666 39.986 42.2666 40.6853C42.2666 41.3845 42.8335 41.9514 43.5327 41.9514Z" fill="#009B97"/>
</svg>
