<svg width="64" height="65" viewBox="0 0 64 65" fill="none" xmlns="http://www.w3.org/2000/svg">
<mask id="mask0_601_692" style="mask-type:luminance" maskUnits="userSpaceOnUse" x="2" y="3" width="60" height="60">
<path d="M61.25 62.25V3.75H2.75V62.25H61.25Z" fill="white" stroke="white" stroke-width="1.5"/>
</mask>
<g mask="url(#mask0_601_692)">
<path d="M60.2422 60.5391H3.75781V54.6797C3.75781 52.0908 5.85641 49.9922 8.44531 49.9922H55.5547C58.1436 49.9922 60.2422 52.0908 60.2422 54.6797V60.5391Z" stroke="#009B97" stroke-width="1.5" stroke-miterlimit="10" stroke-linecap="round" stroke-linejoin="round"/>
<path d="M15.4766 44.1328C15.4766 47.3688 12.8532 49.9922 9.61719 49.9922C6.38117 49.9922 3.75781 47.3688 3.75781 44.1328C3.75781 40.8968 6.38117 38.2734 9.61719 38.2734C12.8532 38.2734 15.4766 40.8968 15.4766 44.1328Z" stroke="#009B97" stroke-width="1.5" stroke-miterlimit="10" stroke-linecap="round" stroke-linejoin="round"/>
<path d="M44.1875 12.4919C44.1875 16.3752 41.0395 19.5232 37.1562 19.5232C33.273 19.5232 30.125 16.3752 30.125 12.4919C30.125 8.6087 33.273 5.46069 37.1562 5.46069C41.0395 5.46069 44.1875 8.6087 44.1875 12.4919Z" stroke="#009B97" stroke-width="1.5" stroke-miterlimit="10" stroke-linecap="round" stroke-linejoin="round"/>
<path d="M51.1375 25.4461C49.4239 21.939 45.8225 19.5232 41.6563 19.5232H32.2813C26.4564 19.5232 21.7344 24.2453 21.7344 30.0701V34.7576C21.7344 37.3465 23.8331 39.4451 26.4219 39.4451H34.6248C36.5663 39.4451 38.1404 37.871 38.1404 35.9294C38.1404 33.9879 36.5663 32.4138 34.6248 32.4138H28.7656V28.8982" stroke="#009B97" stroke-width="1.5" stroke-miterlimit="10" stroke-linecap="round" stroke-linejoin="round"/>
<path d="M45.1719 39.4451C45.1719 41.3866 46.7459 42.9607 48.6875 42.9607C50.6291 42.9607 52.2031 41.3866 52.2031 39.4451V32.7274" stroke="#009B97" stroke-width="1.5" stroke-miterlimit="10" stroke-linecap="round" stroke-linejoin="round"/>
<path d="M56.7246 42.9609H45.1685V36.7873L53.56 31.9425C55.2415 30.9716 55.8176 28.8216 54.8468 27.14C53.8759 25.4585 51.7259 24.8824 50.0443 25.8533L39.8957 31.7127C38.7687 32.3632 38.1534 33.5441 38.1524 34.7578H38.1373V39.4453H20.748C17.8356 39.4453 15.4746 41.8063 15.4746 44.7188C15.4746 47.6312 17.8356 49.9922 20.748 49.9922H56.7246C58.6662 49.9922 60.2402 48.4181 60.2402 46.4766C60.2402 44.535 58.6662 42.9609 56.7246 42.9609Z" stroke="#009B97" stroke-width="1.5" stroke-miterlimit="10" stroke-linecap="round" stroke-linejoin="round"/>
</g>
</svg>
