<svg width="64" height="64" viewBox="0 0 64 64" fill="none" xmlns="http://www.w3.org/2000/svg">
<path fill-rule="evenodd" clip-rule="evenodd" d="M62 62H2V60.5H62V62Z" fill="#009B97"/>
<path fill-rule="evenodd" clip-rule="evenodd" d="M30.7671 56H2V54.5H30.7671V56ZM62 56H33.2329V54.5H62V56Z" fill="#009B97"/>
<path fill-rule="evenodd" clip-rule="evenodd" d="M24.6758 5.92789V2H26.4336V5.92789H24.6758ZM39.3242 2V5.92789H37.5664V2H39.3242ZM24.6758 22.9487V6.71347H26.4336V22.9487H24.6758ZM39.3242 6.71347V22.9487H37.5664V6.71347H39.3242ZM24.6758 23.7343H26.4336V26.7874H27.5277V28.5371H24.6758V23.7343ZM39.3242 23.7343V28.5371H36.4723V26.7874H37.5664V23.7343H39.3242ZM36.0776 28.5371H27.9224V26.7874H36.0776V28.5371ZM32 38.3354C30.4626 38.3354 29.1422 38.5261 27.9799 38.8509L27.5048 37.1663C28.8324 36.7953 30.3135 36.5857 32 36.5857C33.6865 36.5857 35.1676 36.7953 36.4952 37.1663L36.0201 38.8509C34.8578 38.5261 33.5374 38.3354 32 38.3354ZM20.2554 43.97C18.194 45.9242 15.9885 48.0151 12.7594 49.1449L12.1765 47.4942C15.0248 46.4977 16.9872 44.652 19.0892 42.6593L19.1352 42.6157C21.1966 40.6614 23.4021 38.5705 26.6312 37.4408L27.2141 39.0915C24.3658 40.088 22.4035 41.9337 20.3015 43.9263L20.2554 43.97ZM43.6985 43.9263C41.5965 41.9337 39.6342 40.088 36.7859 39.0915L37.3688 37.4408C40.5979 38.5705 42.8034 40.6614 44.8648 42.6157L44.9108 42.6593C47.0128 44.652 48.9752 46.4977 51.8235 47.4942L51.2406 49.1449C48.0115 48.0151 45.806 45.9242 43.7446 43.97L43.6985 43.9263ZM11.8858 49.4193C10.5582 49.7904 9.07713 50 7.39062 50H6.56553V48.2503H7.39062C8.92799 48.2503 10.2484 48.0596 11.4107 47.7348L11.8858 49.4193ZM56.6094 50C54.9229 50 53.4418 49.7904 52.1142 49.4193L52.5893 47.7348C53.7516 48.0596 55.072 48.2503 56.6094 48.2503H57.4345V50H56.6094ZM2.8251 50H2V48.2503H2.8251V50ZM6.40051 50H2.99011V48.2503H6.40051V50ZM61.0099 50H57.5995V48.2503H61.0099V50ZM62 50H61.1749V48.2503H62V50Z" fill="#009B97"/>
<path fill-rule="evenodd" clip-rule="evenodd" d="M29.3 31.4271V27.5H27.5V33.2396H31.1V49.25H32.9V33.2396H36.5V27.5H34.7V31.4271H29.3Z" fill="#009B97"/>
<path fill-rule="evenodd" clip-rule="evenodd" d="M38.0435 43.9561C38.029 43.9467 38.0145 43.9374 38 43.9281L38.9583 42.5C38.975 42.5107 38.9917 42.5214 39.0084 42.5322L38.0435 43.9561ZM41.4243 46.7614C40.2573 45.6762 39.2424 44.7455 38.1303 44.0128L39.108 42.5972C40.3611 43.4229 41.4786 44.4543 42.6296 45.5247L41.4243 46.7614ZM41.5459 46.8745L41.5053 46.8367L42.7108 45.6002L42.7515 45.638L42.7516 45.6381L42.7915 45.6753L41.5859 46.9117L41.5459 46.8745L41.5459 46.8745ZM45.0632 49.8985C43.7762 48.9408 42.665 47.9153 41.6662 46.9864L42.8716 45.7497C43.8728 46.6809 44.921 47.6461 46.1226 48.5403L45.0632 49.8985ZM45.2006 50C45.1853 49.9888 45.1699 49.9775 45.1547 49.9662L46.2074 48.6031C46.2216 48.6135 46.2358 48.6239 46.25 48.6344L45.2006 50Z" fill="#009B97"/>
<path fill-rule="evenodd" clip-rule="evenodd" d="M28.25 5H31.85V6.73571H28.25V5ZM28.25 9.62857H34.25V11.3643H28.25V9.62857ZM28.25 14.2571H31.85V15.9929H28.25V14.2571ZM28.25 18.8857H31.85V20.6214H28.25V18.8857ZM28.25 23.5143H34.25V25.25H28.25V23.5143Z" fill="#009B97"/>
</svg>
