<svg width="64" height="65" viewBox="0 0 64 65" fill="none" xmlns="http://www.w3.org/2000/svg">
<path d="M31.0584 14.5776H32.5063C33.5693 14.5776 34.4376 13.629 34.4689 12.4497C35.5244 12.4147 36.3735 11.4445 36.3735 10.2568V8.63885C36.3735 7.45114 35.5244 6.48079 34.4689 6.44583C34.4376 5.26649 33.5692 4.31787 32.5063 4.31787H31.0584C29.9955 4.31787 29.1272 5.26649 29.0959 6.44583C28.0404 6.48079 27.1914 7.45114 27.1914 8.63872V10.2567C27.1914 11.4444 28.0404 12.4146 29.0959 12.4496C29.127 13.629 29.9955 14.5776 31.0584 14.5776ZM28.8674 10.2567V8.63885C28.8675 8.55369 28.8978 8.47205 28.9517 8.41185C29.0056 8.35164 29.0787 8.31779 29.1549 8.31773H29.8735C30.3685 8.31773 30.771 7.86776 30.771 7.3148V6.51188C30.7711 6.42675 30.8014 6.34513 30.8553 6.28493C30.9092 6.22473 30.9822 6.19086 31.0584 6.19076H32.5063C32.5825 6.19086 32.6556 6.22473 32.7095 6.28493C32.7633 6.34513 32.7936 6.42675 32.7937 6.51188V7.3148C32.7937 7.86789 33.1963 8.31773 33.6913 8.31773H34.4099C34.4861 8.31783 34.5592 8.35171 34.6131 8.41193C34.667 8.47215 34.6973 8.5538 34.6974 8.63897V10.2568C34.6973 10.3419 34.667 10.4235 34.6131 10.4837C34.5593 10.5439 34.4862 10.5778 34.41 10.5779H33.6913C33.1963 10.5779 32.7937 11.0279 32.7937 11.5808V12.3838C32.7936 12.4689 32.7633 12.5505 32.7095 12.6108C32.6556 12.671 32.5825 12.7049 32.5063 12.705H31.0584C30.9822 12.7049 30.9092 12.671 30.8553 12.6108C30.8014 12.5506 30.7711 12.469 30.771 12.3839V11.581C30.771 11.0279 30.3683 10.578 29.8735 10.578H29.1549C29.0786 10.5779 29.0056 10.544 28.9517 10.4838C28.8978 10.4235 28.8675 10.3418 28.8674 10.2567Z" fill="#009B97"/>
<path d="M48.5054 42.5278L38.0617 38.1518C37.9275 38.095 37.8119 37.9941 37.7301 37.8623C37.6484 37.7305 37.6044 37.574 37.6039 37.4137V33.2766C40.1686 31.3665 41.9656 28.267 42.3579 24.6886C44.3487 24.5124 45.9208 22.6473 45.9208 20.3784C45.9208 18.1402 44.3913 16.2939 42.439 16.0751V7.24763C42.439 5.56826 41.642 3.98165 40.359 3.10694L38.3211 1.71735C37.267 0.998571 36.056 0.618332 34.8212 0.618408H28.4166C27.1818 0.618332 25.9708 0.998571 24.9168 1.71735L22.8786 3.10694C21.5957 3.98165 20.7988 5.56826 20.7988 7.24763V16.0645C18.787 16.2167 17.1917 18.0927 17.1917 20.3785C17.1917 22.6952 18.8305 24.5921 20.8809 24.6985C21.2754 28.2726 23.0715 31.3683 25.6339 33.2766V37.4137C25.6334 37.574 25.5894 37.7305 25.5077 37.8623C25.4259 37.9941 25.3103 38.095 25.1761 38.1518L14.7324 42.5278C11.0408 44.0747 8.56055 48.0737 8.56055 52.4788V58.2364C8.56055 58.4847 8.64884 58.7229 8.806 58.8985C8.96316 59.0741 9.17632 59.1727 9.39858 59.1727C9.62084 59.1727 9.834 59.0741 9.99116 58.8985C10.1483 58.7229 10.2366 58.4847 10.2366 58.2364V52.4788C10.2366 48.8499 12.2799 45.5556 15.3208 44.2814L18.557 42.9254V48.9175C17.1284 49.3336 16.0709 50.7872 16.0709 52.5119C16.0709 54.56 17.562 56.2263 19.395 56.2263C21.2279 56.2263 22.7191 54.56 22.7191 52.5119C22.7191 50.7872 21.6615 49.3336 20.233 48.9175V42.2231L20.7122 42.0223C20.7346 42.0455 20.7582 42.068 20.7835 42.0889L22.8576 43.8082C25.4106 45.9244 28.4402 47.0429 31.619 47.0429C34.7976 47.0429 37.8274 45.9244 40.3803 43.8082L42.4583 42.0857C42.4823 42.0659 42.5049 42.0447 42.5264 42.0227L43.6862 42.5086V48.1349C41.5946 48.292 39.9358 50.242 39.9358 52.6182V60.0342C39.9358 60.2826 40.0241 60.5207 40.1812 60.6963C40.3384 60.8719 40.5516 60.9706 40.7738 60.9706H42.0501C42.513 60.9706 42.8881 60.5514 42.8881 60.0342C42.8881 59.5171 42.513 59.0978 42.0501 59.0978H41.6119V52.6182C41.6119 51.1724 42.6645 49.9962 43.9584 49.9962H44.9947C46.2885 49.9962 47.3412 51.1724 47.3412 52.6182V59.0978H46.9073C46.6851 59.0978 46.4719 59.1965 46.3148 59.3721C46.1576 59.5477 46.0693 59.7859 46.0693 60.0342C46.0693 60.2826 46.1576 60.5207 46.3148 60.6963C46.4719 60.8719 46.6851 60.9706 46.9073 60.9706H48.1793C48.4015 60.9706 48.6147 60.8719 48.7718 60.6963C48.929 60.5207 49.0173 60.2826 49.0173 60.0342V52.6182C49.0173 50.2783 47.4086 48.3513 45.3622 48.143V43.211L47.9169 44.2815C50.958 45.5557 53.0012 48.85 53.0012 52.4791V62.3948C53.0012 62.4054 52.9974 62.4156 52.9907 62.4231C52.9839 62.4307 52.9748 62.4349 52.9653 62.435H10.2726C10.2631 62.435 10.2539 62.4307 10.2472 62.4232C10.2404 62.4156 10.2366 62.4054 10.2366 62.3948V61.9819C10.2366 61.7336 10.1483 61.4954 9.99116 61.3198C9.834 61.1442 9.62084 61.0455 9.39858 61.0455C9.17632 61.0455 8.96316 61.1442 8.806 61.3198C8.64884 61.4954 8.56055 61.7336 8.56055 61.9819V62.3948C8.56055 63.4495 9.32863 64.3078 10.2726 64.3078H52.9652C53.9092 64.3078 54.6772 63.4495 54.6772 62.3948V52.479C54.6772 48.0737 52.1969 44.0747 48.5054 42.5278ZM21.043 52.5119C21.043 53.5274 20.3038 54.3535 19.395 54.3535C18.4862 54.3535 17.747 53.5274 17.747 52.5119C17.747 51.4965 18.4862 50.6705 19.395 50.6705C20.3038 50.6705 21.043 51.4965 21.043 52.5119ZM44.2447 20.3786C44.2447 21.5823 43.464 22.584 42.439 22.7901V17.9671C43.464 18.1731 44.2447 19.1749 44.2447 20.3786ZM18.8677 20.3786C18.8677 19.1262 19.7127 18.0921 20.7986 17.9458V22.8116C19.7127 22.6651 18.8677 21.6309 18.8677 20.3786ZM22.4748 23.2099V17.937H27.0665C27.2887 17.937 27.5019 17.8384 27.6591 17.6628C27.8162 17.4872 27.9045 17.249 27.9045 17.0006C27.9045 16.7523 27.8162 16.5141 27.6591 16.3385C27.5019 16.1629 27.2887 16.0642 27.0665 16.0642H22.4748V7.24763C22.4748 6.21661 22.9641 5.24252 23.7518 4.70554L25.7899 3.31607C26.5809 2.77653 27.4898 2.49111 28.4166 2.49118H34.8212C35.748 2.49112 36.6569 2.77654 37.4481 3.31607L39.486 4.70554C40.2737 5.24252 40.763 6.21661 40.763 7.24763V16.0642H30.4186C30.1964 16.0642 29.9832 16.1629 29.826 16.3385C29.6689 16.5141 29.5806 16.7523 29.5806 17.0006C29.5806 17.249 29.6689 17.4872 29.826 17.6628C29.9832 17.8384 30.1964 17.937 30.4186 17.937H40.763V23.2099C40.763 28.8436 36.661 33.4271 31.6189 33.4271C26.5768 33.4271 22.4748 28.8436 22.4748 23.2099ZM39.3816 42.3042C37.1197 44.1792 34.4353 45.1703 31.6189 45.1703C28.8024 45.1703 26.1182 44.1792 23.8562 42.3042L22.5747 41.242L25.7644 39.9055C26.6887 39.5182 27.3098 38.5169 27.3098 37.4138V34.2986C28.631 34.9421 30.0881 35.2999 31.6189 35.2999C33.1496 35.2999 34.6068 34.9421 35.9279 34.2986V37.4138C35.9279 38.5169 36.549 39.5182 37.4732 39.9055L40.663 41.242L39.3816 42.3042Z" fill="#009B97"/>
</svg>
