<svg width="65" height="64" viewBox="0 0 65 64" fill="none" xmlns="http://www.w3.org/2000/svg">
<path d="M49.204 35.93C49.1306 35.9565 49.062 36.001 49.0021 36.061C48.9423 36.1211 48.8924 36.1954 48.8552 36.2799C48.8181 36.3643 48.7945 36.4572 48.7857 36.5533C48.7769 36.6493 48.7832 36.7465 48.8041 36.8395C49.0004 37.7117 48.8321 38.6188 48.3851 39.0964C47.7758 39.7476 46.6789 39.6416 46.1706 38.8825C45.8145 38.3507 45.8353 37.6373 45.8609 37.3553C45.9081 36.8321 45.5171 36.4155 45.1174 36.5662C44.9689 36.622 44.1974 36.8718 43.5771 36.3028C42.9088 35.6898 42.7073 34.4127 43.1279 33.4559C43.4299 32.7688 44.0151 32.3295 44.6548 32.3096C45.4517 32.2847 46.1848 31.9557 46.7748 31.3578L55.8113 22.2012C55.8709 22.1408 55.9205 22.0661 55.9573 21.9814C55.9942 21.8967 56.0174 21.8037 56.0258 21.7076C56.0342 21.6116 56.0276 21.5143 56.0063 21.4215C55.985 21.3287 55.9495 21.2421 55.9018 21.1666C55.8541 21.0912 55.7951 21.0284 55.7281 20.9818C55.6612 20.9352 55.5877 20.9057 55.5118 20.8951C55.4359 20.8845 55.3591 20.8928 55.2858 20.9198C55.2124 20.9467 55.144 20.9917 55.0844 21.0521L46.0479 30.2087C45.6582 30.6035 45.1666 30.8212 44.6262 30.838C43.5765 30.8707 42.6129 31.5996 42.1116 32.7402C41.0909 35.062 42.2588 38.2912 44.711 38.1299C45.0031 41.0386 47.7257 41.7278 49.1355 40.221C49.9258 39.3764 50.2421 37.8553 49.9226 36.4361C49.8803 36.2484 49.7809 36.0896 49.6461 35.9947C49.5114 35.8998 49.3523 35.8765 49.204 35.93Z" fill="#009B97"/>
<path d="M58.5819 25.5219C58.547 25.436 58.499 25.3596 58.4407 25.2971C58.3825 25.2347 58.315 25.1874 58.2423 25.1579C58.1696 25.1284 58.093 25.1173 58.0169 25.1253C57.9408 25.1333 57.8667 25.1602 57.7988 25.2044C54.8735 27.1108 52.1785 29.5363 49.7954 32.4076C49.7401 32.4742 49.6957 32.554 49.6648 32.6424C49.6338 32.7308 49.6169 32.826 49.6151 32.9226C49.6132 33.0192 49.6264 33.1154 49.6539 33.2056C49.6814 33.2958 49.7226 33.3782 49.7753 33.4482C49.8279 33.5182 49.891 33.5744 49.9608 33.6136C50.0306 33.6527 50.1059 33.6741 50.1822 33.6765C50.2586 33.6788 50.3345 33.6621 50.4058 33.6273C50.477 33.5926 50.5422 33.5403 50.5975 33.4737C52.9002 30.6991 55.5045 28.3553 58.3311 26.5131C58.4682 26.4238 58.5717 26.2691 58.6187 26.0833C58.6657 25.8974 58.6525 25.6955 58.5819 25.5219ZM45.9729 46.5847C45.3142 47.1751 44.8602 48.1035 44.7271 49.132C44.3737 51.8652 44.4555 54.6814 44.9704 57.5022C45.0067 57.6902 45.1001 57.8526 45.2304 57.9541C45.3606 58.0557 45.5172 58.0881 45.6663 58.0446C45.8153 58.001 45.9448 57.8848 46.0266 57.7213C46.1085 57.5577 46.1361 57.36 46.1036 57.1708C45.623 54.5376 45.5461 51.913 45.8749 49.3697C45.958 48.7275 46.2387 48.1502 46.6451 47.7859C46.7084 47.7305 46.7623 47.6598 46.8039 47.5779C46.8454 47.4959 46.8737 47.4043 46.8871 47.3085C46.9005 47.2126 46.8987 47.1143 46.8819 47.0193C46.865 46.9243 46.8335 46.8345 46.789 46.755C46.7445 46.6756 46.6881 46.608 46.6228 46.5564C46.5576 46.5048 46.485 46.47 46.4091 46.4542C46.3332 46.4384 46.2555 46.4417 46.1807 46.4641C46.1058 46.4865 46.0352 46.5275 45.9729 46.5847Z" fill="#009B97"/>
<path d="M45.8655 43.0494C45.9403 43.0685 46.0175 43.0688 46.0924 43.0502C46.1674 43.0316 46.2387 42.9945 46.3023 42.941C46.3659 42.8874 46.4205 42.8186 46.4631 42.7383C46.5057 42.6581 46.5353 42.568 46.5504 42.4732C46.5808 42.2819 46.55 42.083 46.4646 41.9205C46.3792 41.7579 46.2463 41.6449 46.0951 41.6064C45.153 41.3664 44.1839 41.9439 43.6139 43.0007C42.9201 42.5425 42.0992 42.5092 41.4046 42.9559C39.9277 43.906 39.5173 46.9179 41.3116 48.5504C41.9049 49.0901 42.2221 49.9795 42.1396 50.8714L41.5344 57.4114C41.494 57.8484 41.7636 58.2331 42.1128 58.2331C42.2552 58.2328 42.3925 58.1665 42.4988 58.0466C42.6052 57.9267 42.673 57.7617 42.6896 57.5827L43.2948 51.0427C43.4264 49.62 42.9267 48.2069 41.9906 47.3552C41.5885 46.9894 41.3353 46.4774 41.2959 45.9506C41.2644 45.5304 41.3569 44.638 41.9316 44.2683C42.4035 43.9649 43.0011 44.1066 43.4185 44.621C43.7219 44.995 44.2323 44.8458 44.3731 44.3369C44.6428 43.3616 45.3438 42.9163 45.8655 43.0494ZM41.6115 39.255C41.695 37.2733 40.5968 34.8102 39.2154 34.8753C37.8648 34.9404 37.1585 36.9681 37.0576 38.9486C36.9569 40.9247 37.4498 43.0455 38.7775 43.3284C40.1511 43.6213 41.5253 41.2995 41.6115 39.255ZM38.9707 41.877C38.4732 41.7709 38.1426 40.5262 38.2182 39.0433C38.2939 37.5554 38.7514 36.3707 39.2596 36.3462C39.6788 36.3263 40.5123 37.6985 40.45 39.1766C40.3858 40.7012 39.3901 41.9651 38.9707 41.877Z" fill="#009B97"/>
<path d="M37.3331 31.523C41.253 26.068 46.8788 21.7589 54.6854 16.5744C54.8193 16.4819 54.9192 16.3265 54.9634 16.1416C55.0077 15.9567 54.9927 15.7573 54.9218 15.5862C54.8509 15.4152 54.7297 15.2863 54.5844 15.2273C54.4391 15.1683 54.2813 15.184 54.145 15.271C46.2261 20.53 40.5076 24.9175 36.4727 30.5328C34.5642 33.1889 33.8206 36.8521 34.4839 40.332C35.5722 46.0415 35.9171 51.9845 35.5093 57.9959C35.5022 58.0925 35.5104 58.19 35.5332 58.2826C35.556 58.3753 35.5931 58.4613 35.6423 58.5357C35.6915 58.6102 35.7518 58.6716 35.8198 58.7164C35.8878 58.7612 35.9622 58.7885 36.0386 58.7968C36.115 58.8051 36.1919 58.7942 36.265 58.7648C36.338 58.7353 36.4058 58.6878 36.4643 58.6251C36.5228 58.5623 36.5709 58.4856 36.6059 58.3992C36.6408 58.3128 36.662 58.2186 36.668 58.1218C37.0866 51.9522 36.7322 45.8508 35.6145 39.9868C35.0417 36.9818 35.6842 33.8178 37.3331 31.523ZM51.5265 42.1215C51.4971 42.0319 51.454 41.9504 51.3996 41.8819C51.3452 41.8134 51.2807 41.7592 51.2097 41.7224C51.1387 41.6856 51.0627 41.667 50.986 41.6675C50.9093 41.668 50.8334 41.6878 50.7628 41.7256C50.6921 41.7634 50.6281 41.8186 50.5743 41.8878C50.5206 41.9571 50.4782 42.0392 50.4496 42.1293C50.4211 42.2194 50.4068 42.3157 50.4078 42.4128C50.4088 42.5099 50.4249 42.6057 50.4553 42.6949C52.0545 47.4812 52.2366 52.7714 51.0073 57.6757C50.8883 58.1505 51.1692 58.6345 51.5617 58.6345C51.6852 58.6344 51.8055 58.5845 51.9051 58.4922C52.0047 58.3999 52.0785 58.2698 52.1159 58.1208C53.426 52.8939 53.2374 47.2425 51.5265 42.1215ZM63.7939 28.7624C63.7354 28.7002 63.6679 28.6532 63.595 28.6241C63.5222 28.595 63.4456 28.5843 63.3695 28.5927C63.2934 28.6011 63.2194 28.6283 63.1516 28.6729C63.0839 28.7175 63.0237 28.7785 62.9746 28.8526C60.4189 32.7026 57.4716 36.1072 54.2095 38.9777C54.1468 39.0329 54.0933 39.1031 54.0521 39.1845C54.0108 39.2658 53.9826 39.3566 53.9691 39.4518C53.9556 39.5469 53.957 39.6445 53.9733 39.7389C53.9895 39.8333 54.0203 39.9228 54.0639 40.0021C54.1075 40.0815 54.163 40.1492 54.2273 40.2014C54.2916 40.2537 54.3633 40.2893 54.4385 40.3064C54.5136 40.3236 54.5907 40.3218 54.6653 40.3012C54.74 40.2806 54.8106 40.2416 54.8733 40.1864C58.2198 37.2418 61.2434 33.7491 63.8651 29.7994C63.9143 29.7254 63.9514 29.6399 63.9744 29.5477C63.9974 29.4555 64.0058 29.3585 63.9992 29.2622C63.9926 29.1659 63.9711 29.0722 63.9358 28.9865C63.9006 28.9007 63.8524 28.8246 63.7939 28.7624Z" fill="#009B97"/>
<path fill-rule="evenodd" clip-rule="evenodd" d="M4.34046 34.5823C5.27167 34.3083 5.62821 34.2997 6.2588 34.4086C6.98996 34.5359 7.74745 34.4753 8.48566 34.2304L19.504 30.5911C21.6809 29.8722 22.145 26.2389 20.2376 25.1214C21.1974 23.6196 20.8898 21.5331 19.5985 20.7754C19.7506 20.5374 19.8754 20.2758 19.9688 19.999L29.2054 26.9456C29.2955 27.0133 29.4236 27.0479 29.5423 27.0262L32.6661 26.4536C32.8313 26.4232 33.0549 26.3075 33.2427 26.1176L36.81 28.8007C36.9261 28.8881 37.0696 28.9113 37.2089 28.8653C37.3481 28.8193 37.4718 28.7079 37.5527 28.5555C37.6335 28.4032 37.665 28.2224 37.6401 28.0529C37.6152 27.8834 37.5359 27.7391 37.4198 27.6517L33.8518 24.9681C33.915 24.6856 33.9073 24.3962 33.8595 24.2047L32.9521 20.6003C32.9165 20.4627 32.8442 20.3475 32.7464 20.2725L29.1938 17.6007C29.0777 17.5134 28.9342 17.4902 28.7949 17.5363C28.6557 17.5823 28.532 17.6938 28.4512 17.8462C28.3703 17.9986 28.3389 18.1794 28.3638 18.3489C28.3888 18.5184 28.468 18.6627 28.5842 18.75L31.6987 21.0921L29.3772 25.4673L28.5684 24.8589L28.8108 24.4015C28.8509 24.3261 28.8792 24.2429 28.8942 24.1566C28.9092 24.0704 28.9106 23.9828 28.8983 23.8989C28.886 23.815 28.8602 23.7363 28.8224 23.6675C28.7846 23.5987 28.7355 23.541 28.6781 23.4978C28.6206 23.4545 28.5558 23.4266 28.4873 23.4155C28.4189 23.4044 28.3482 23.4104 28.2792 23.4332C28.2103 23.4559 28.1444 23.495 28.0854 23.5481C28.0264 23.6013 27.9754 23.6675 27.9354 23.7429L27.6929 24.2003L26.7865 23.5189L27.0292 23.0613C27.0708 22.9858 27.1005 22.902 27.1166 22.8149C27.1328 22.7277 27.1349 22.639 27.1231 22.5538C27.1112 22.4687 27.0856 22.3888 27.0476 22.3189C27.0096 22.249 26.9601 22.1905 26.9019 22.1468C26.8437 22.103 26.778 22.0749 26.7087 22.0641C26.6393 22.0533 26.5677 22.0601 26.4981 22.0839C26.4284 22.1078 26.362 22.1483 26.3029 22.2031C26.2437 22.2579 26.1929 22.3258 26.1535 22.403L25.9111 22.8604L25.0048 22.1787L25.2474 21.7216C25.2875 21.6462 25.3158 21.5629 25.3308 21.4766C25.3458 21.3903 25.3472 21.3027 25.3348 21.2188C25.3225 21.1348 25.2967 21.0562 25.2588 20.9873C25.221 20.9185 25.172 20.8608 25.1145 20.8175C24.873 20.6355 24.5405 20.7454 24.3719 21.0628L24.1294 21.5202L23.2232 20.8385L23.4656 20.3811C23.5464 20.2288 23.5779 20.048 23.553 19.8785C23.5281 19.7091 23.4489 19.5648 23.3328 19.4774C23.2167 19.3901 23.0732 19.367 22.9339 19.413C22.7946 19.459 22.6709 19.5704 22.59 19.7228L22.3475 20.1802L21.4596 19.5123L23.7809 15.1373L26.5403 17.2124C26.6564 17.2985 26.7994 17.3208 26.938 17.2745C27.0766 17.2281 27.1996 17.117 27.2801 16.9652C27.3607 16.8135 27.3922 16.6335 27.3678 16.4645C27.3434 16.2956 27.2651 16.1514 27.15 16.0635L24.1947 13.8407C24.321 13.3641 24.3504 12.8661 24.28 12.3931C24.0515 10.8387 22.8331 9.92192 21.5557 10.3442L21.2857 10.4332C21.2221 10.1376 21.0753 9.8765 20.852 9.7088L20.4096 9.3757C19.9121 9.00147 19.2288 9.22688 18.882 9.88045L18.0154 11.5133L17.9913 11.5214L16.007 10.0291L16.082 9.8878C16.4286 9.2345 16.3062 8.40313 15.8086 8.02861L15.3661 7.69606C15.14 7.52582 14.8727 7.48172 14.6158 7.54595C14.5629 7.42712 14.5021 7.31255 14.432 7.20412C13.9008 6.38133 12.4965 6.10985 11.7592 6.84678L8.95582 9.66592C8.84127 9.78117 8.76442 9.94435 8.74217 10.1196C8.71992 10.2948 8.75408 10.4678 8.83715 10.6004C8.87827 10.6661 8.93017 10.7199 8.98988 10.7587C9.0496 10.7976 9.11596 10.8207 9.18517 10.8267C9.25437 10.8328 9.32507 10.8217 9.39321 10.794C9.46135 10.7664 9.5256 10.7227 9.58229 10.6656L9.63679 10.6108C10.0263 10.219 12.3716 7.86016 12.3782 7.85469C12.652 7.62781 13.3679 7.76257 13.5768 8.08594C13.8714 8.54248 13.8568 9.22732 13.5281 9.73739L11.5021 12.9552C10.9489 13.8335 11.525 14.9974 12.3736 14.7172C12.7955 14.5776 21.3115 11.7649 21.7437 11.6222C22.4388 11.3926 23.1053 11.8938 23.2298 12.7397C23.3531 13.579 22.895 14.4584 22.1951 14.6901L17.6214 16.2006L14.3558 17.2793C14.2165 17.3254 14.0929 17.4368 14.0121 17.5892C13.9313 17.7416 13.8999 17.9224 13.9249 18.0919C13.9765 18.4447 14.2538 18.6531 14.5439 18.5575L17.5865 17.5527C18.7157 17.1796 19.5039 18.6691 18.863 19.8769C18.7672 20.0584 18.6449 20.2175 18.5032 20.3452C18.3615 20.4728 18.2032 20.5664 18.0375 20.6205L14.995 21.6255C14.9261 21.6483 14.8602 21.6873 14.8012 21.7405C14.7422 21.7936 14.6912 21.8598 14.6512 21.9353C14.6112 22.0107 14.5829 22.094 14.5679 22.1802C14.5529 22.2665 14.5516 22.3541 14.564 22.438C14.5763 22.5219 14.6021 22.6006 14.6399 22.6694C14.6776 22.7382 14.7267 22.7959 14.7842 22.8391C14.8417 22.8823 14.9065 22.9103 14.9749 22.9213C15.0433 22.9324 15.1141 22.9263 15.183 22.9035L18.2256 21.8987C19.3453 21.5287 20.1516 22.9989 19.502 24.2229C19.4063 24.4044 19.284 24.5636 19.1424 24.6913C19.0007 24.8189 18.8425 24.9126 18.6768 24.9668L15.6341 25.9716C15.3442 26.0675 15.1511 26.4311 15.2031 26.784C15.228 26.9535 15.3073 27.0978 15.4234 27.1852C15.5395 27.2725 15.683 27.2957 15.8223 27.2498L18.8647 26.2448C19.5598 26.0151 20.2265 26.5167 20.3509 27.3623C20.4755 28.2084 20.0111 29.0834 19.3159 29.3128C8.72251 32.812 7.77314 33.2424 6.87528 33.1533C6.75552 33.1414 6.63667 33.1203 6.49598 33.096C5.66429 32.9522 5.1611 32.9946 3.99861 33.3481L4.34046 34.5823ZM0.579205 21.0025C1.04355 20.6886 1.43402 20.3155 1.67682 19.9851C4.752 15.8161 5.30915 15.0003 5.97409 14.2847C6.33286 13.8985 6.723 13.5416 7.55693 12.7029C7.61365 12.6459 7.66172 12.5765 7.69839 12.4987C7.73505 12.4209 7.75959 12.3362 7.77061 12.2495C7.78162 12.1627 7.77889 12.0757 7.76258 11.9932C7.74626 11.9108 7.71668 11.8346 7.67553 11.769C7.63445 11.7032 7.58258 11.6494 7.52288 11.6105C7.46319 11.5716 7.39684 11.5485 7.32764 11.5424C7.25844 11.5362 7.18774 11.5473 7.11959 11.5749C7.05144 11.6025 6.98717 11.6461 6.93046 11.7032C5.99861 12.6405 5.58183 13.0221 5.20113 13.4368C4.53232 14.1653 3.97487 14.9961 0.931639 19.1219C0.720635 19.3745 0.488217 19.5948 0.240234 19.7786L0.579205 21.0025ZM19.766 10.528C19.7626 10.531 19.7597 10.5348 19.7574 10.5391L19.5006 11.0229L20.1684 10.8024L19.7997 10.5252C19.7964 10.5227 19.7927 10.5211 19.7888 10.5204C19.7849 10.5198 19.7809 10.5201 19.777 10.5214C19.7731 10.5227 19.7693 10.5249 19.766 10.528ZM15.7661 12.2566C16.079 12.1532 16.4137 12.0427 16.506 12.0123L15.3972 11.1785L14.8554 12.1995L15.1858 12.4482C15.267 12.4214 15.5092 12.3414 15.7661 12.2566ZM15.207 9.18767C15.2048 9.18375 15.202 9.18047 15.1988 9.17802L14.8523 8.91734C14.8015 9.81067 14.5353 10.2269 13.6007 11.6885C13.4227 11.967 13.2203 12.2834 12.9906 12.6483L13.2529 12.8456C13.2562 12.8481 13.2598 12.8497 13.2637 12.8503C13.2676 12.8509 13.2716 12.8506 13.2756 12.8493C13.2795 12.848 13.2832 12.8458 13.2866 12.8428C13.2899 12.8398 13.2928 12.836 13.2951 12.8317C13.4206 12.595 13.887 11.7161 14.3308 10.8796C14.726 10.1348 15.1034 9.42358 15.2063 9.22946C15.2086 9.22517 15.2102 9.22043 15.2111 9.21552C15.2119 9.21061 15.212 9.20562 15.2113 9.20084C15.2106 9.19606 15.2091 9.19158 15.207 9.18767ZM32.2501 22.362L30.5769 25.5149L32.5735 25.1487C32.6004 25.1376 32.6239 25.1152 32.6398 25.0854C32.6404 25.0845 32.725 24.9245 32.725 24.9245L32.8104 24.7639C32.8261 24.7342 32.833 24.699 32.8299 24.6659L32.2501 22.362ZM20.1403 18.4697C20.1432 18.4966 20.1459 18.5222 20.1461 18.525L20.5839 18.854L22.058 16.076L21.2228 16.3518L20.1335 18.4046C20.1336 18.4062 20.1371 18.4388 20.1403 18.4697Z" fill="#009B97"/>
</svg>
