<svg width="64" height="64" viewBox="0 0 64 64" fill="none" xmlns="http://www.w3.org/2000/svg">
<g clip-path="url(#clip0_502_634)">
<path d="M42.849 17.6861L46.5689 19.283C47.3497 19.6176 48.084 20.0519 48.7534 20.5749C48.872 20.6681 49.0184 20.7186 49.1692 20.7185C49.3099 20.7186 49.4471 20.6749 49.5617 20.5933C49.6762 20.5117 49.7625 20.3964 49.8084 20.2634C49.8543 20.1305 49.8575 19.9865 49.8177 19.8516C49.7778 19.7167 49.6968 19.5976 49.586 19.511C48.8248 18.9161 47.9898 18.4223 47.1019 18.0416L43.3819 16.4447C42.6906 16.1485 42.0578 15.7309 41.5136 15.2117C40.2665 14.0234 39.5513 12.354 39.5513 10.6316V9.67554C39.5513 9.30237 39.249 9 38.8758 9C38.5026 9 38.2002 9.30237 38.2002 9.67554V10.6315C38.2002 12.7218 39.0683 14.7477 40.5816 16.1897C41.2421 16.8198 42.01 17.3266 42.849 17.6861ZM54.9238 47.494L54.1385 45.9839C54.0837 45.8781 54.055 45.7608 54.0549 45.6417V38.0912C54.055 37.561 53.945 37.0367 53.7319 36.5512C53.5187 36.0658 53.2071 35.63 52.8166 35.2714C52.8169 35.263 52.8179 35.2548 52.8179 35.2463L52.818 33.0072C54.5205 29.3501 54.119 25.0601 51.7566 21.7733C51.7048 21.7013 51.6394 21.6401 51.564 21.5934C51.4886 21.5466 51.4047 21.5152 51.3171 21.5009C51.2296 21.4865 51.1401 21.4896 51.0537 21.5099C50.9673 21.5301 50.8858 21.5672 50.8138 21.619C50.7417 21.6708 50.6806 21.7363 50.6339 21.8117C50.5871 21.8871 50.5557 21.9709 50.5414 22.0585C50.527 22.146 50.5301 22.2355 50.5504 22.3219C50.5706 22.4083 50.6077 22.4898 50.6595 22.5618C52.7632 25.4887 53.0983 29.3204 51.5339 32.5617C51.4898 32.6533 51.4668 32.7537 51.4668 32.8554V34.1134L45.1423 28.7116V27.9263C45.1423 27.5532 44.8399 27.2508 44.4668 27.2508C44.0936 27.2508 43.7912 27.5532 43.7912 27.9263V37.3765C43.7912 38.3 43.6248 39.221 43.3065 40.0867L43.1875 39.8884C42.836 39.3024 42.2749 38.8977 41.6079 38.7488C40.9411 38.6004 40.2612 38.7277 39.6938 39.1085C38.7086 39.7697 38.3327 41.041 38.7999 42.1317L40.6606 46.4739C41.1369 47.5852 41.8468 48.5809 42.7421 49.3934C42.742 49.4086 42.7418 49.4237 42.7428 49.4391L43.044 54.1958C43.0553 54.3747 43.1372 54.5416 43.2716 54.6601C43.4061 54.7785 43.5821 54.8387 43.7609 54.8274C43.9397 54.8161 44.1067 54.7342 44.2252 54.5997C44.3436 54.4653 44.4038 54.2893 44.3924 54.1104L44.1597 50.4349C44.3866 50.5673 44.6195 50.6891 44.8578 50.7999L45.6189 51.1538L48.2615 54.7261C48.3243 54.8112 48.4062 54.8803 48.5006 54.9278C48.5951 54.9754 48.6994 55.0001 48.8051 54.9999C48.9301 54.9999 49.0527 54.9651 49.1592 54.8995C49.2656 54.8339 49.3518 54.74 49.408 54.6283C49.4643 54.5166 49.4884 54.3915 49.4777 54.2669C49.4671 54.1423 49.422 54.0231 49.3476 53.9226L46.6026 50.212C46.5355 50.1213 46.4467 50.0488 46.3443 50.0012L45.4271 49.5748C43.8442 48.8401 42.5888 47.5462 41.9024 45.9418L40.0418 41.5997C39.9393 41.36 39.9236 41.0921 39.9975 40.8421C40.0714 40.5921 40.2303 40.3758 40.4466 40.2304C40.5723 40.1454 40.7141 40.087 40.8632 40.059C41.0123 40.031 41.1656 40.0338 41.3136 40.0675C41.4618 40.0999 41.6018 40.1624 41.7248 40.2512C41.8479 40.34 41.9514 40.4531 42.0289 40.5835L43.3887 42.8496C43.6716 43.3209 44.1887 43.6137 44.7383 43.6137H45.6594C46.4349 43.6137 47.0883 43.0581 47.213 42.2926L47.351 41.4442C47.3653 41.3567 47.3622 41.2671 47.3419 41.1808C47.3215 41.0944 47.2844 41.0129 47.2326 40.941C47.1807 40.869 47.1152 40.8079 47.0398 40.7612C46.9643 40.7145 46.8804 40.6832 46.7929 40.669C46.616 40.6402 46.435 40.6828 46.2897 40.7875C46.1443 40.8922 46.0464 41.0503 46.0176 41.2271L45.8795 42.0754C45.8712 42.1278 45.8444 42.1754 45.8041 42.2097C45.7637 42.244 45.7125 42.2628 45.6595 42.2626H44.7384C44.6999 42.2625 44.6622 42.2525 44.6287 42.2335C44.5952 42.2146 44.5672 42.1873 44.5473 42.1544L44.16 41.5089C44.8025 40.2315 45.1424 38.8064 45.1424 37.3764V34.688L46.6958 36.5439C46.7407 36.5976 46.7601 36.668 46.7488 36.7372L46.4865 38.3483C46.4707 38.445 46.4762 38.544 46.5025 38.6384C46.5288 38.7328 46.5753 38.8203 46.6388 38.8949C46.7023 38.9695 46.7813 39.0294 46.8703 39.0704C46.9592 39.1115 47.0561 39.1327 47.1541 39.1325C47.3143 39.1323 47.4692 39.0751 47.5912 38.9713C47.7132 38.8674 47.7943 38.7236 47.8201 38.5654L48.0823 36.9542C48.1191 36.7286 48.1069 36.4977 48.0464 36.2772C47.9859 36.0568 47.8786 35.8519 47.7318 35.6767L45.1424 32.5831V30.4884L51.8335 36.2033C52.1066 36.4362 52.3258 36.7256 52.4761 37.0516C52.6263 37.3775 52.704 37.7322 52.7038 38.0911V45.6416C52.7038 45.9763 52.7854 46.3102 52.9398 46.6071L53.725 48.1172C53.7659 48.1959 53.822 48.2658 53.8899 48.3229C53.9578 48.3799 54.0363 48.4231 54.1209 48.4498C54.2055 48.4765 54.2945 48.4863 54.3829 48.4786C54.4713 48.4709 54.5573 48.4459 54.636 48.405C54.7147 48.3641 54.7846 48.3081 54.8417 48.2401C54.8987 48.1722 54.9418 48.0937 54.9686 48.0091C54.9953 47.9245 55.0051 47.8355 54.9974 47.7471C54.9897 47.6587 54.9647 47.5727 54.9238 47.494ZM36.9369 36.523C35.7109 37.6251 35.0078 39.202 35.0078 40.8493C35.0078 41.7923 35.2388 42.7289 35.6761 43.5581C35.7174 43.6366 35.7739 43.7062 35.8421 43.7629C35.9104 43.8195 35.9891 43.8622 36.0739 43.8884C36.1586 43.9147 36.2477 43.924 36.3361 43.9158C36.4244 43.9076 36.5103 43.8821 36.5888 43.8407C36.7472 43.7571 36.866 43.614 36.919 43.4428C36.972 43.2717 36.9548 43.0865 36.8713 42.928C36.5361 42.2922 36.359 41.5735 36.359 40.8493C36.3595 40.2228 36.4916 39.6034 36.7468 39.0312C37.0019 38.459 37.3744 37.9468 37.8401 37.5277C37.9072 37.4687 37.962 37.397 38.0011 37.3167C38.0403 37.2364 38.0632 37.1491 38.0684 37.06C38.0737 36.9708 38.0612 36.8814 38.0316 36.7971C38.0021 36.7128 37.9562 36.6352 37.8964 36.5687C37.8367 36.5023 37.7644 36.4483 37.6837 36.41C37.6029 36.3717 37.5154 36.3498 37.4262 36.3456C37.337 36.3413 37.2478 36.3548 37.1638 36.3853C37.0798 36.4157 37.0027 36.4626 36.9369 36.523Z" fill="#009B97"/>
<path d="M39.622 35.1578C39.4485 35.1965 39.2972 35.302 39.201 35.4515C39.1048 35.6009 39.0713 35.7823 39.1079 35.9562C39.1445 36.1302 39.2481 36.2827 39.3964 36.3807C39.5446 36.4788 39.7255 36.5145 39.8999 36.4801C40.4714 36.3613 41.0604 36.3538 41.6347 36.4581C41.7224 36.4753 41.8127 36.4748 41.9003 36.4569C41.9878 36.4389 42.071 36.4037 42.1448 36.3534C42.2187 36.3031 42.2819 36.2386 42.3306 36.1636C42.3794 36.0887 42.4128 36.0049 42.4289 35.9169C42.445 35.829 42.4436 35.7388 42.4245 35.6514C42.4055 35.5641 42.3694 35.4814 42.3181 35.4081C42.2669 35.3348 42.2017 35.2725 42.1262 35.2246C42.0507 35.1767 41.9665 35.1443 41.8784 35.1292C41.1371 34.9933 40.3578 35.0031 39.622 35.1578ZM25.1254 9C25.0367 8.99999 24.9489 9.01745 24.8669 9.0514C24.785 9.08534 24.7105 9.1351 24.6477 9.19784C24.585 9.26057 24.5353 9.33504 24.5013 9.41701C24.4674 9.49898 24.4499 9.58683 24.4499 9.67554V10.6315C24.4499 12.3539 23.7347 14.0232 22.4876 15.2117C21.9433 15.7308 21.3106 16.1483 20.6192 16.4446L16.8993 18.0415C14.0739 19.2544 11.9247 21.5084 10.8478 24.3885C9.78929 27.2195 9.90945 30.274 11.1832 33.0073V35.2463C11.1832 35.2544 11.1841 35.2622 11.1843 35.2701C10.7945 35.622 10.4828 36.0517 10.2696 36.5316C10.0563 37.0115 9.94617 37.5308 9.94629 38.056V39.2537C9.94629 39.6269 10.2487 39.9293 10.6218 39.9293C10.995 39.9293 11.2974 39.6269 11.2974 39.2537V38.056C11.2971 37.7081 11.3725 37.3643 11.5181 37.0484C11.6637 36.7325 11.8762 36.4519 12.1409 36.2261L18.8588 30.4884V32.5831L16.2694 35.6766C16.1226 35.8519 16.0152 36.0567 15.9548 36.2772C15.8943 36.4977 15.882 36.7286 15.9188 36.9543L16.788 42.2927C16.8469 42.662 17.0358 42.998 17.3207 43.2403C17.6056 43.4825 17.9676 43.615 18.3416 43.6138H19.2626C19.8124 43.6138 20.3296 43.321 20.6123 42.8496L21.972 40.5837C22.0496 40.4532 22.1531 40.3401 22.2761 40.2513C22.3992 40.1625 22.5391 40.0999 22.6874 40.0675C22.8354 40.0339 22.9887 40.031 23.1378 40.059C23.2869 40.0871 23.4287 40.1454 23.5544 40.2305C23.7707 40.3759 23.9296 40.5922 24.0034 40.8422C24.0773 41.0921 24.0617 41.36 23.9592 41.5997L22.0986 45.9419C21.4121 47.5463 20.1567 48.8403 18.5738 49.575L17.6567 50.0013C17.5543 50.0488 17.4654 50.1213 17.3983 50.2121L14.6534 53.9227C14.6006 53.994 14.5624 54.075 14.5409 54.1611C14.5195 54.2472 14.5152 54.3367 14.5283 54.4244C14.5414 54.5121 14.5717 54.5964 14.6174 54.6725C14.6631 54.7485 14.7234 54.8148 14.7947 54.8675C14.9107 54.9537 15.0514 55.0002 15.1959 55C15.3016 55.0001 15.4059 54.9754 15.5003 54.9279C15.5947 54.8803 15.6767 54.8112 15.7395 54.7262L18.3821 51.1539L19.1431 50.8002C19.3814 50.6894 19.6143 50.5675 19.8413 50.435L19.6085 54.1105C19.6029 54.1991 19.6148 54.2879 19.6435 54.3718C19.6722 54.4558 19.7172 54.5332 19.7758 54.5998C19.8942 54.7342 20.0612 54.8161 20.2401 54.8275C20.4189 54.8388 20.5949 54.7786 20.7293 54.6602C20.8638 54.5417 20.9457 54.3747 20.957 54.1959L21.2582 49.4392C21.2592 49.4238 21.2588 49.4087 21.2587 49.3935C22.154 48.581 22.864 47.5853 23.3403 46.474L25.2009 42.1317C25.6682 41.0411 25.2924 39.7697 24.3071 39.1086C23.7397 38.7278 23.0597 38.6001 22.3928 38.749C21.7259 38.8978 21.1648 39.3026 20.8133 39.8887L20.6943 40.0869C20.376 39.221 20.2097 38.3001 20.2097 37.3765V27.9263C20.2097 27.5532 19.9073 27.2508 19.5341 27.2508C19.161 27.2508 18.8586 27.5532 18.8586 27.9263V28.7116L12.534 34.1135V32.8554C12.534 32.7537 12.511 32.6533 12.4669 32.5617C11.2921 30.1278 11.1665 27.3932 12.1131 24.8618C13.0596 22.3304 14.9489 20.3491 17.4324 19.283L21.1522 17.6861C21.9912 17.3266 22.7591 16.8198 23.4197 16.1898C24.9331 14.7477 25.801 12.7219 25.801 10.6316V9.67554C25.801 9.30237 25.4986 9 25.1254 9ZM19.454 42.1546C19.4341 42.1875 19.406 42.2148 19.3726 42.2337C19.3391 42.2527 19.3013 42.2627 19.2628 42.2628H18.3417C18.2888 42.263 18.2375 42.2442 18.1972 42.2099C18.1568 42.1756 18.1301 42.128 18.1217 42.0757L17.2525 36.7374C17.2469 36.7032 17.2488 36.6683 17.2579 36.6349C17.2671 36.6015 17.2833 36.5705 17.3056 36.544L18.8589 34.6882V37.3766C18.8589 38.8067 19.1988 40.2318 19.8414 41.5092L19.454 42.1546Z" fill="#009B97"/>
<path d="M10.6223 41.4574C10.5336 41.4573 10.4458 41.4748 10.3638 41.5088C10.2818 41.5427 10.2074 41.5925 10.1446 41.6552C10.0819 41.7179 10.0321 41.7924 9.99819 41.8744C9.96425 41.9563 9.94678 42.0442 9.94679 42.1329V45.6604C9.94679 45.7669 9.92085 45.873 9.87176 45.9674L9.07796 47.494C8.99677 47.6528 8.98167 47.8373 9.03597 48.0072C9.09027 48.1771 9.20955 48.3186 9.36779 48.4009C9.52603 48.4832 9.71039 48.4995 9.88066 48.4464C10.0509 48.3933 10.1933 48.275 10.2766 48.1173L11.0704 46.5906C11.2195 46.3031 11.2974 45.9842 11.2978 45.6604V42.1329C11.2978 42.0442 11.2804 41.9563 11.2464 41.8744C11.2125 41.7924 11.1628 41.7179 11.1 41.6552C11.0373 41.5924 10.9628 41.5427 10.8809 41.5087C10.7989 41.4748 10.7111 41.4573 10.6223 41.4574ZM27.0648 36.523C26.9988 36.4637 26.9218 36.4179 26.8382 36.3884C26.7545 36.3588 26.6659 36.346 26.5773 36.3507C26.4887 36.3555 26.4019 36.3776 26.3219 36.4158C26.2418 36.4541 26.1701 36.5077 26.1108 36.5737C26.0515 36.6397 26.0057 36.7167 25.9762 36.8003C25.9466 36.884 25.9338 36.9726 25.9385 37.0612C25.9432 37.1498 25.9654 37.2366 26.0036 37.3166C26.0419 37.3967 26.0955 37.4684 26.1615 37.5277C26.6272 37.9468 26.9997 38.459 27.2549 39.0312C27.51 39.6034 27.6421 40.2228 27.6427 40.8493C27.6427 41.5735 27.4655 42.2923 27.1303 42.928C27.0489 43.0863 27.0333 43.2703 27.0868 43.4401C27.1403 43.6098 27.2586 43.7516 27.4161 43.8346C27.5735 43.9177 27.7574 43.9352 27.9277 43.8834C28.098 43.8316 28.241 43.7147 28.3256 43.5581C28.7628 42.7289 28.9938 41.7922 28.9938 40.8493C28.9938 39.202 28.2907 37.6251 27.0648 36.523ZM22.1229 35.1292C21.7559 35.1964 21.513 35.5484 21.5803 35.9154C21.6475 36.2824 22.0001 36.5256 22.3665 36.458C22.9408 36.3538 23.5298 36.3612 24.1013 36.48C24.2766 36.5167 24.4594 36.4824 24.6094 36.3845C24.7594 36.2866 24.8645 36.1331 24.9014 35.9578C24.9197 35.871 24.9206 35.7814 24.9043 35.6942C24.8879 35.607 24.8545 35.5239 24.8061 35.4496C24.7576 35.3753 24.6949 35.3113 24.6217 35.2612C24.5485 35.2111 24.4661 35.176 24.3793 35.1577C23.6433 35.0031 22.864 34.9933 22.1229 35.1292ZM32.0725 9C31.9838 8.99999 31.8959 9.01745 31.814 9.0514C31.732 9.08534 31.6575 9.1351 31.5948 9.19784C31.5321 9.26057 31.4823 9.33504 31.4484 9.41701C31.4144 9.49898 31.397 9.58683 31.397 9.67554V11.2552C31.397 11.6284 31.6993 11.9308 32.0725 11.9308C32.4457 11.9308 32.7481 11.6284 32.7481 11.2552V9.67554C32.7481 9.30237 32.4457 9 32.0725 9ZM32.0725 15.0457C31.9838 15.0456 31.8959 15.0631 31.814 15.097C31.732 15.131 31.6575 15.1808 31.5948 15.2435C31.5321 15.3062 31.4823 15.3807 31.4484 15.4627C31.4144 15.5446 31.397 15.6325 31.397 15.7212V17.3008C31.397 17.674 31.6993 17.9763 32.0725 17.9763C32.4457 17.9763 32.7481 17.674 32.7481 17.3008V15.7212C32.7481 15.542 32.6769 15.3702 32.5502 15.2435C32.4235 15.1168 32.2517 15.0457 32.0725 15.0457ZM32.0725 21.0912C31.9838 21.0912 31.8959 21.1087 31.814 21.1426C31.732 21.1766 31.6575 21.2263 31.5948 21.289C31.5321 21.3518 31.4823 21.4263 31.4484 21.5082C31.4144 21.5902 31.397 21.678 31.397 21.7668V23.3464C31.397 23.7195 31.6993 24.0219 32.0725 24.0219C32.4457 24.0219 32.7481 23.7195 32.7481 23.3464V21.7668C32.7481 21.5876 32.6769 21.4158 32.5502 21.2891C32.4235 21.1624 32.2517 21.0912 32.0725 21.0912ZM32.0725 27.1368C31.9838 27.1368 31.8959 27.1542 31.814 27.1882C31.732 27.2221 31.6575 27.2719 31.5948 27.3346C31.5321 27.3973 31.4823 27.4718 31.4484 27.5538C31.4144 27.6357 31.397 27.7236 31.397 27.8123V29.392C31.397 29.7652 31.6993 30.0675 32.0725 30.0675C32.4457 30.0675 32.7481 29.7652 32.7481 29.392V27.8123C32.7481 27.6331 32.6769 27.4613 32.5502 27.3346C32.4235 27.2079 32.2517 27.1368 32.0725 27.1368ZM32.0725 33.1825C31.9838 33.1825 31.8959 33.2 31.814 33.2339C31.732 33.2679 31.6575 33.3176 31.5948 33.3803C31.5321 33.4431 31.4823 33.5176 31.4484 33.5995C31.4144 33.6815 31.397 33.7693 31.397 33.8581V35.4377C31.397 35.8108 31.6993 36.1132 32.0725 36.1132C32.4457 36.1132 32.7481 35.8108 32.7481 35.4377V33.8581C32.7481 33.4849 32.4457 33.1825 32.0725 33.1825ZM32.0725 39.2281C31.9838 39.2281 31.8959 39.2455 31.814 39.2795C31.732 39.3134 31.6575 39.3632 31.5948 39.4259C31.5321 39.4886 31.4823 39.5631 31.4484 39.6451C31.4144 39.727 31.397 39.8149 31.397 39.9036V41.4833C31.397 41.8565 31.6993 42.1588 32.0725 42.1588C32.4457 42.1588 32.7481 41.8565 32.7481 41.4833V39.9036C32.7481 39.5304 32.4457 39.2281 32.0725 39.2281ZM32.0725 45.2737C31.9838 45.2737 31.8959 45.2912 31.814 45.3251C31.732 45.3591 31.6575 45.4088 31.5948 45.4716C31.5321 45.5343 31.4823 45.6088 31.4484 45.6907C31.4144 45.7727 31.397 45.8605 31.397 45.9493V47.5289C31.397 47.902 31.6993 48.2044 32.0725 48.2044C32.4457 48.2044 32.7481 47.902 32.7481 47.5289V45.9493C32.7481 45.5761 32.4457 45.2737 32.0725 45.2737ZM32.0725 51.3193C31.9838 51.3193 31.8959 51.3367 31.814 51.3707C31.732 51.4046 31.6575 51.4544 31.5948 51.5171C31.5321 51.5799 31.4823 51.6543 31.4484 51.7363C31.4144 51.8183 31.397 51.9061 31.397 51.9948V53.5744C31.397 53.9476 31.6993 54.25 32.0725 54.25C32.4457 54.25 32.7481 53.9476 32.7481 53.5744V51.9948C32.7481 51.6217 32.4457 51.3193 32.0725 51.3193Z" fill="#009B97"/>
</g>
<defs>
<clipPath id="clip0_502_634">
<rect width="46" height="46" fill="white" transform="translate(9 9)"/>
</clipPath>
</defs>
</svg>
